<svg version="1.1" id="Layer_1" xmlns="http://www.w3.org/2000/svg" xmlns:xlink="http://www.w3.org/1999/xlink" x="0px" y="0px"
	 width="100%" viewBox="0 0 361 65" enable-background="new 0 0 361 65" xml:space="preserve">
<path fill="#FFF7F7" opacity="1.000000" stroke="none" 
	d="
M260.000000,66.000000 
	C173.333359,66.000000 87.166718,66.000000 1.000058,66.000000 
	C1.000039,44.333366 1.000039,22.666731 1.000019,1.000072 
	C121.333260,1.000048 241.666519,1.000048 361.999817,1.000024 
	C361.999878,22.666594 361.999878,44.333187 361.999939,65.999893 
	C328.166656,66.000000 294.333344,66.000000 260.000000,66.000000 
M174.116699,11.153516 
	C165.663803,11.314342 157.210922,11.475167 148.001740,11.875868 
	C147.606125,14.231878 147.210526,16.587889 146.686813,19.706785 
	C152.982040,19.706785 158.486588,19.706785 164.950470,19.706785 
	C163.415909,22.102318 162.521423,23.635975 161.496124,25.076492 
	C155.621078,33.330669 149.568802,41.464188 143.907516,49.861698 
	C142.185349,52.416225 141.512238,55.677994 140.313477,58.730907 
	C141.883392,59.200413 142.351669,59.460155 142.821594,59.463173 
	C150.806396,59.514503 158.791397,59.544384 166.776367,59.557381 
	C173.936493,59.569035 174.596268,58.747593 173.300110,50.771507 
	C167.427109,50.771507 161.432220,50.771507 154.532135,50.771507 
	C156.026825,48.560589 156.900726,47.207783 157.834030,45.897278 
	C163.616577,37.777637 169.562332,29.768234 175.121399,21.498720 
	C177.025879,18.665657 177.973053,15.189055 179.647690,11.339641 
	C177.256744,11.339641 176.150299,11.339641 174.116699,11.153516 
M185.052139,13.485339 
	C182.993454,28.605453 180.934769,43.725567 178.778366,59.563431 
	C187.112717,59.563431 194.732956,59.564053 202.353180,59.563248 
	C209.308121,59.562511 210.120697,58.552990 208.876450,50.817055 
	C203.056458,50.817055 197.131607,50.817055 190.848694,50.817055 
	C190.848694,48.506702 190.857315,46.733582 190.847015,44.960571 
	C190.820465,40.396145 192.792419,38.367191 197.597351,38.940632 
	C200.972809,39.343472 204.435135,39.018452 207.990952,39.018452 
	C208.452988,35.909527 208.808777,33.515511 209.285019,30.311024 
	C203.520950,30.311024 198.461945,30.311024 193.416077,30.311024 
	C193.549561,19.658331 193.549561,19.658354 202.911331,19.660780 
	C204.576874,19.661213 206.242401,19.663837 207.907944,19.661161 
	C214.357742,19.650801 214.498856,19.503876 214.211487,11.942628 
	C204.977005,11.734963 195.742722,11.511029 186.507126,11.387181 
	C186.183334,11.382840 185.846207,12.374200 185.052139,13.485339 
M276.628113,16.549831 
	C276.526520,17.702126 276.424896,18.854420 276.042938,20.814924 
	C274.386017,33.489353 272.729126,46.163780 270.978485,59.555092 
	C279.040405,59.555092 286.653168,59.555477 294.265900,59.554981 
	C301.542328,59.554508 302.007355,59.000660 300.995789,50.843163 
	C295.031311,50.843163 288.963562,50.843163 282.078033,50.843163 
	C282.821289,46.484653 283.439819,42.857582 284.095734,39.011101 
	C287.691986,39.011101 290.671753,39.010902 293.651550,39.011139 
	C300.968414,39.011719 301.312286,38.622028 300.711731,30.306360 
	C295.705688,30.306360 290.639465,30.306360 285.622528,30.306360 
	C285.150116,19.876896 285.354401,19.649147 294.566376,19.650888 
	C296.232758,19.651203 297.899139,19.653131 299.565521,19.650654 
	C306.725769,19.640007 307.318268,18.874308 305.790710,11.020330 
	C297.921936,11.020330 289.944946,11.226274 281.986298,10.934134 
	C277.959473,10.786321 276.375427,12.079150 276.628113,16.549831 
M219.525040,23.639256 
	C219.407562,25.449476 219.290085,27.259697 218.605713,29.638056 
	C217.327362,39.440887 216.049011,49.243721 214.739243,59.287563 
	C216.578506,59.407185 217.746964,59.355007 218.860535,59.577492 
	C224.049820,60.614281 225.593277,57.828506 225.805511,53.295067 
	C225.937347,50.478645 226.197342,47.623898 226.859467,44.897999 
	C227.131866,43.776592 228.671585,42.119984 229.529053,42.181507 
	C230.812210,42.273567 232.596390,43.404949 233.107452,44.562332 
	C234.165161,46.957638 234.511917,49.664574 235.173279,52.237640 
	C237.299484,60.509842 238.368713,61.104927 247.161163,58.597271 
	C245.866623,53.678848 244.422119,48.774624 243.373077,43.787216 
	C243.116577,42.567726 243.728424,40.501263 244.668243,39.802887 
	C250.532455,35.445210 252.012589,29.371279 251.927902,22.613384 
	C251.838501,15.478456 247.614746,11.529168 239.288345,11.291247 
	C234.085999,11.344612 228.883636,11.397977 223.099243,11.126384 
	C222.359985,11.780425 221.102386,12.345006 220.971375,13.104023 
	C220.410843,16.351738 220.182510,19.656790 219.525040,23.639256 
M33.110275,30.055223 
	C34.100155,27.600565 34.848225,25.009747 36.135983,22.722822 
	C38.120468,19.198584 41.749638,17.886736 45.085518,19.549204 
	C47.010624,20.508598 47.834373,23.791618 48.995594,26.108116 
	C49.398727,26.912308 49.325638,27.955217 49.521435,29.221348 
	C52.065536,29.221348 54.421539,29.507191 56.650558,29.099234 
	C57.744263,28.899065 59.174835,27.567043 59.469780,26.480402 
	C60.881275,21.280136 58.044937,14.962486 53.454960,12.366251 
	C43.245892,6.591684 28.839817,11.149750 25.337646,22.242493 
	C23.036018,29.532648 22.315525,37.488262 22.014744,45.189911 
	C21.784660,51.081291 24.767204,56.313793 30.689377,58.569199 
	C38.606384,61.584309 46.393253,60.600620 53.616734,56.193886 
	C54.742405,55.507160 55.834026,53.990150 56.044743,52.709545 
	C57.062588,46.523659 57.773842,40.287327 58.563972,34.295235 
	C57.928669,33.831528 57.669666,33.479195 57.398796,33.469822 
	C54.411922,33.366455 51.423409,33.275047 48.434940,33.260265 
	C41.600086,33.226444 40.679283,34.384674 41.789909,41.594692 
	C43.508350,41.837673 45.254837,42.084618 47.100101,42.345531 
	C46.969738,46.635021 47.543407,50.892727 41.593365,51.350452 
	C35.666279,51.806416 32.756386,49.900158 32.253002,43.777550 
	C31.903885,39.531319 32.704060,35.190594 33.110275,30.055223 
M65.405792,30.973530 
	C64.270927,40.310963 63.136063,49.648396 62.004791,58.956295 
	C71.836220,60.611454 72.330666,60.219326 73.086418,50.926792 
	C73.234352,49.107857 73.216705,47.160580 73.900238,45.535267 
	C74.480309,44.155960 76.043686,42.155865 77.024826,42.235832 
	C78.312302,42.340767 79.935471,44.003101 80.551399,45.381268 
	C81.550919,47.617752 81.831848,50.171989 82.447395,52.584110 
	C84.435150,60.373344 85.360710,60.878227 94.295738,58.706184 
	C92.779930,52.848373 91.262192,46.983143 89.718788,41.018684 
	C97.311111,36.828663 99.271652,30.089552 99.060463,22.316269 
	C98.896675,16.287403 95.562279,11.938391 89.540840,11.471186 
	C82.638626,10.935640 75.662941,11.347022 68.302879,11.347022 
	C67.384186,17.675062 66.482391,23.886646 65.405792,30.973530 
M101.796463,42.421432 
	C102.189827,45.363594 102.128632,48.460136 103.065208,51.217812 
	C105.486786,58.347984 111.403938,60.063854 118.188454,60.180511 
	C126.336067,60.320602 132.493011,57.067455 135.695648,49.448471 
	C139.450714,40.515217 140.810181,31.013855 138.761612,21.595089 
	C137.986359,18.030655 134.891663,13.972056 131.703278,12.118251 
	C122.115585,6.543737 108.862442,11.498895 105.380402,21.958578 
	C103.312981,28.168873 102.937103,34.942287 101.796463,42.421432 
M328.433594,10.097596 
	C326.134827,10.391009 323.793396,10.497933 321.545197,11.012423 
	C314.483978,12.628384 310.169434,18.540545 310.053101,26.507477 
	C309.965759,32.492527 313.898407,36.755020 321.212158,38.611401 
	C323.465057,39.183235 326.137726,39.209011 327.849670,40.502220 
	C329.675262,41.881275 331.852142,44.672791 331.556396,46.464916 
	C331.248474,48.330700 328.385834,50.673481 326.260925,51.163681 
	C320.968445,52.384621 319.434387,50.784729 316.557526,42.639729 
	C313.699951,43.108505 309.307556,42.617603 308.091156,44.352951 
	C306.745239,46.273010 307.711914,50.464005 308.796997,53.223392 
	C309.600250,55.266060 312.029755,57.726482 314.039398,58.038494 
	C319.977509,58.960434 326.231812,59.921844 332.054260,58.974247 
	C338.943726,57.852997 342.422760,51.301407 342.245422,43.264835 
	C342.115082,37.358028 338.910919,33.884121 331.757782,31.846096 
	C329.209259,31.119974 326.310211,30.857075 324.253998,29.411453 
	C322.594757,28.244942 320.838501,25.390875 321.180664,23.701857 
	C321.543701,21.909971 324.128448,19.714329 326.099579,19.267210 
	C331.356201,18.074816 332.685791,19.623590 335.014465,28.337921 
	C337.895844,27.981665 342.127472,28.647657 343.576233,26.945316 
	C345.028625,25.238720 344.369934,20.951677 343.464478,18.178247 
	C341.283081,11.496445 335.198059,10.787436 328.433594,10.097596 
M260.224915,11.596330 
	C258.001282,27.323603 255.777649,43.050877 253.563507,58.711002 
	C263.123199,60.911552 263.791962,60.374046 264.770020,51.554081 
	C265.465668,45.281097 266.473175,39.043312 267.276550,32.781487 
	C268.177856,25.756367 269.006012,18.721863 269.931122,11.158813 
	C266.535095,11.158813 263.760986,11.158813 260.224915,11.596330 
z"/>
<path fill="#FF3D3D" opacity="1.000000" stroke="none" 
	d="
M33.050507,30.473656 
	C32.704060,35.190594 31.903885,39.531319 32.253002,43.777550 
	C32.756386,49.900158 35.666279,51.806416 41.593365,51.350452 
	C47.543407,50.892727 46.969738,46.635021 47.100101,42.345531 
	C45.254837,42.084618 43.508350,41.837673 41.789909,41.594692 
	C40.679283,34.384674 41.600086,33.226444 48.434940,33.260265 
	C51.423409,33.275047 54.411922,33.366455 57.398796,33.469822 
	C57.669666,33.479195 57.928669,33.831528 58.563972,34.295235 
	C57.773842,40.287327 57.062588,46.523659 56.044743,52.709545 
	C55.834026,53.990150 54.742405,55.507160 53.616734,56.193886 
	C46.393253,60.600620 38.606384,61.584309 30.689377,58.569199 
	C24.767204,56.313793 21.784660,51.081291 22.014744,45.189911 
	C22.315525,37.488262 23.036018,29.532648 25.337646,22.242493 
	C28.839817,11.149750 43.245892,6.591684 53.454960,12.366251 
	C58.044937,14.962486 60.881275,21.280136 59.469780,26.480402 
	C59.174835,27.567043 57.744263,28.899065 56.650558,29.099234 
	C54.421539,29.507191 52.065536,29.221348 49.521435,29.221348 
	C49.325638,27.955217 49.398727,26.912308 48.995594,26.108116 
	C47.834373,23.791618 47.010624,20.508598 45.085518,19.549204 
	C41.749638,17.886736 38.120468,19.198584 36.135983,22.722822 
	C34.848225,25.009747 34.100155,27.600565 33.050507,30.473656 
z"/>
<path fill="#FF3B3B" opacity="1.000000" stroke="none" 
	d="
M65.493195,30.535881 
	C66.482391,23.886646 67.384186,17.675062 68.302879,11.347022 
	C75.662941,11.347022 82.638626,10.935640 89.540840,11.471186 
	C95.562279,11.938391 98.896675,16.287403 99.060463,22.316269 
	C99.271652,30.089552 97.311111,36.828663 89.718788,41.018684 
	C91.262192,46.983143 92.779930,52.848373 94.295738,58.706184 
	C85.360710,60.878227 84.435150,60.373344 82.447395,52.584110 
	C81.831848,50.171989 81.550919,47.617752 80.551399,45.381268 
	C79.935471,44.003101 78.312302,42.340767 77.024826,42.235832 
	C76.043686,42.155865 74.480309,44.155960 73.900238,45.535267 
	C73.216705,47.160580 73.234352,49.107857 73.086418,50.926792 
	C72.330666,60.219326 71.836220,60.611454 62.004791,58.956295 
	C63.136063,49.648396 64.270927,40.310963 65.493195,30.535881 
M75.847511,29.760857 
	C76.228287,31.003277 76.737213,33.348804 76.970497,33.321701 
	C80.175880,32.949287 84.131958,33.176022 86.278885,31.347681 
	C88.107727,29.790218 88.882523,25.529745 88.262146,22.905046 
	C87.331848,18.969088 83.207825,19.241962 79.850716,19.444147 
	C75.853172,19.684902 76.683395,23.009768 76.270485,25.471300 
	C76.078308,26.616934 76.058159,27.791424 75.847511,29.760857 
z"/>
<path fill="#FF3B3B" opacity="1.000000" stroke="none" 
	d="
M101.798569,41.941971 
	C102.937103,34.942287 103.312981,28.168873 105.380402,21.958578 
	C108.862442,11.498895 122.115585,6.543737 131.703278,12.118251 
	C134.891663,13.972056 137.986359,18.030655 138.761612,21.595089 
	C140.810181,31.013855 139.450714,40.515217 135.695648,49.448471 
	C132.493011,57.067455 126.336067,60.320602 118.188454,60.180511 
	C111.403938,60.063854 105.486786,58.347984 103.065208,51.217812 
	C102.128632,48.460136 102.189827,45.363594 101.798569,41.941971 
M128.146088,39.420395 
	C128.549637,35.303886 129.102493,31.194975 129.312439,27.068613 
	C129.501434,23.354380 128.633514,19.943501 124.266670,19.131628 
	C119.940842,18.327381 116.181023,20.066050 115.204666,24.202600 
	C113.584503,31.066753 112.609741,38.148026 112.186417,45.187359 
	C112.071022,47.106190 114.698982,50.642124 116.423981,50.882687 
	C119.080215,51.253117 122.726067,50.147598 124.683914,48.314072 
	C126.615250,46.505379 126.970268,43.013481 128.146088,39.420395 
z"/>
<path fill="#FF3D3D" opacity="1.000000" stroke="none" 
	d="
M328.870361,10.116304 
	C335.198059,10.787436 341.283081,11.496445 343.464478,18.178247 
	C344.369934,20.951677 345.028625,25.238720 343.576233,26.945316 
	C342.127472,28.647657 337.895844,27.981665 335.014465,28.337921 
	C332.685791,19.623590 331.356201,18.074816 326.099579,19.267210 
	C324.128448,19.714329 321.543701,21.909971 321.180664,23.701857 
	C320.838501,25.390875 322.594757,28.244942 324.253998,29.411453 
	C326.310211,30.857075 329.209259,31.119974 331.757782,31.846096 
	C338.910919,33.884121 342.115082,37.358028 342.245422,43.264835 
	C342.422760,51.301407 338.943726,57.852997 332.054260,58.974247 
	C326.231812,59.921844 319.977509,58.960434 314.039398,58.038494 
	C312.029755,57.726482 309.600250,55.266060 308.796997,53.223392 
	C307.711914,50.464005 306.745239,46.273010 308.091156,44.352951 
	C309.307556,42.617603 313.699951,43.108505 316.557526,42.639729 
	C319.434387,50.784729 320.968445,52.384621 326.260925,51.163681 
	C328.385834,50.673481 331.248474,48.330700 331.556396,46.464916 
	C331.852142,44.672791 329.675262,41.881275 327.849670,40.502220 
	C326.137726,39.209011 323.465057,39.183235 321.212158,38.611401 
	C313.898407,36.755020 309.965759,32.492527 310.053101,26.507477 
	C310.169434,18.540545 314.483978,12.628384 321.545197,11.012423 
	C323.793396,10.497933 326.134827,10.391009 328.870361,10.116304 
z"/>
<path fill="#FF3B3B" opacity="1.000000" stroke="none" 
	d="
M240.238876,11.543567 
	C247.614746,11.529168 251.838501,15.478456 251.927902,22.613384 
	C252.012589,29.371279 250.532455,35.445210 244.668243,39.802887 
	C243.728424,40.501263 243.116577,42.567726 243.373077,43.787216 
	C244.422119,48.774624 245.866623,53.678848 247.161163,58.597271 
	C238.368713,61.104927 237.299484,60.509842 235.173279,52.237640 
	C234.511917,49.664574 234.165161,46.957638 233.107452,44.562332 
	C232.596390,43.404949 230.812210,42.273567 229.529053,42.181507 
	C228.671585,42.119984 227.131866,43.776592 226.859467,44.897999 
	C226.197342,47.623898 225.937347,50.478645 225.805511,53.295067 
	C225.593277,57.828506 224.049820,60.614281 218.860535,59.577492 
	C217.746964,59.355007 216.578506,59.407185 214.739243,59.287563 
	C216.049011,49.243721 217.327362,39.440887 219.205963,29.474098 
	C220.531708,28.857019 221.939667,28.196768 221.874924,27.983496 
	C221.350388,26.255266 220.549591,24.610880 219.833038,22.940933 
	C220.182510,19.656790 220.410843,16.351738 220.971375,13.104023 
	C221.102386,12.345006 222.359985,11.780425 223.666382,11.671373 
	C229.568634,11.992097 234.903763,11.767832 240.238876,11.543567 
M240.587296,29.932722 
	C240.471375,27.021759 241.411789,23.240353 239.936264,21.449747 
	C238.519760,19.730791 234.245651,19.056522 231.903107,19.869799 
	C230.332870,20.414951 229.932816,24.353104 229.034592,26.782457 
	C228.924454,27.080322 228.979904,27.437300 228.945175,27.765457 
	C228.329163,33.585037 229.437180,34.718498 235.200806,33.426273 
	C236.995361,33.023930 238.556519,31.580639 240.587296,29.932722 
M222.742203,15.180996 
	C222.630142,15.025089 222.518082,14.869183 222.406006,14.713279 
	C222.428253,14.930399 222.450500,15.147518 222.742203,15.180996 
z"/>
<path fill="#FF3B3B" opacity="1.000000" stroke="none" 
	d="
M277.105469,16.041454 
	C276.375427,12.079150 277.959473,10.786321 281.986298,10.934134 
	C289.944946,11.226274 297.921936,11.020330 305.790710,11.020330 
	C307.318268,18.874308 306.725769,19.640007 299.565521,19.650654 
	C297.899139,19.653131 296.232758,19.651203 294.566376,19.650888 
	C285.354401,19.649147 285.150116,19.876896 285.622528,30.306360 
	C290.639465,30.306360 295.705688,30.306360 300.711731,30.306360 
	C301.312286,38.622028 300.968414,39.011719 293.651550,39.011139 
	C290.671753,39.010902 287.691986,39.011101 284.095734,39.011101 
	C283.439819,42.857582 282.821289,46.484653 282.078033,50.843163 
	C288.963562,50.843163 295.031311,50.843163 300.995789,50.843163 
	C302.007355,59.000660 301.542328,59.554508 294.265900,59.554981 
	C286.653168,59.555477 279.040405,59.555092 270.978485,59.555092 
	C272.729126,46.163780 274.386017,33.489353 276.493042,20.330975 
	C276.997253,18.578503 277.051361,17.309978 277.105469,16.041454 
z"/>
<path fill="#FF3D3D" opacity="1.000000" stroke="none" 
	d="
M214.431030,12.899874 
	C214.498856,19.503876 214.357742,19.650801 207.907944,19.661161 
	C206.242401,19.663837 204.576874,19.661213 202.911331,19.660780 
	C193.549561,19.658354 193.549561,19.658331 193.416077,30.311024 
	C198.461945,30.311024 203.520950,30.311024 209.285019,30.311024 
	C208.808777,33.515511 208.452988,35.909527 207.990952,39.018452 
	C204.435135,39.018452 200.972809,39.343472 197.597351,38.940632 
	C192.792419,38.367191 190.820465,40.396145 190.847015,44.960571 
	C190.857315,46.733582 190.848694,48.506702 190.848694,50.817055 
	C197.131607,50.817055 203.056458,50.817055 208.876450,50.817055 
	C210.120697,58.552990 209.308121,59.562511 202.353180,59.563248 
	C194.732956,59.564053 187.112717,59.563431 178.778366,59.563431 
	C180.934769,43.725567 182.993454,28.605453 185.786942,13.225357 
	C195.824844,12.943542 205.127930,12.921708 214.431030,12.899874 
z"/>
<path fill="#FF3C3C" opacity="1.000000" stroke="none" 
	d="
M175.043854,11.339640 
	C176.150299,11.339641 177.256744,11.339641 179.647690,11.339641 
	C177.973053,15.189055 177.025879,18.665657 175.121399,21.498720 
	C169.562332,29.768234 163.616577,37.777637 157.834030,45.897278 
	C156.900726,47.207783 156.026825,48.560589 154.532135,50.771507 
	C161.432220,50.771507 167.427109,50.771507 173.300110,50.771507 
	C174.596268,58.747593 173.936493,59.569035 166.776367,59.557381 
	C158.791397,59.544384 150.806396,59.514503 142.821594,59.463173 
	C142.351669,59.460155 141.883392,59.200413 140.313477,58.730907 
	C141.512238,55.677994 142.185349,52.416225 143.907516,49.861698 
	C149.568802,41.464188 155.621078,33.330669 161.496124,25.076492 
	C162.521423,23.635975 163.415909,22.102318 164.950470,19.706785 
	C158.486588,19.706785 152.982040,19.706785 146.686813,19.706785 
	C147.210526,16.587889 147.606125,14.231878 148.667740,12.106945 
	C158.071045,12.567873 166.808365,12.797725 175.545670,13.027576 
	C175.378403,12.464931 175.211121,11.902286 175.043854,11.339640 
z"/>
<path fill="#FF3C3C" opacity="1.000000" stroke="none" 
	d="
M260.605896,11.377571 
	C263.760986,11.158813 266.535095,11.158813 269.931122,11.158813 
	C269.006012,18.721863 268.177856,25.756367 267.276550,32.781487 
	C266.473175,39.043312 265.465668,45.281097 264.770020,51.554081 
	C263.791962,60.374046 263.123199,60.911552 253.563507,58.711002 
	C255.777649,43.050877 258.001282,27.323603 260.605896,11.377571 
z"/>
<path fill="#FF2323" opacity="1.000000" stroke="none" 
	d="
M214.321259,12.421251 
	C205.127930,12.921708 195.824844,12.943542 186.018524,12.933429 
	C185.846207,12.374200 186.183334,11.382840 186.507126,11.387181 
	C195.742722,11.511029 204.977005,11.734963 214.321259,12.421251 
z"/>
<path fill="#FF2525" opacity="1.000000" stroke="none" 
	d="
M174.580276,11.246578 
	C175.211121,11.902286 175.378403,12.464931 175.545670,13.027576 
	C166.808365,12.797725 158.071045,12.567873 149.045883,11.987007 
	C157.210922,11.475167 165.663803,11.314342 174.580276,11.246578 
z"/>
<path fill="#FF2B2B" opacity="1.000000" stroke="none" 
	d="
M219.679031,23.290094 
	C220.549591,24.610880 221.350388,26.255266 221.874924,27.983496 
	C221.939667,28.196768 220.531708,28.857019 219.489410,29.190029 
	C219.290085,27.259697 219.407562,25.449476 219.679031,23.290094 
z"/>
<path fill="#FF2B2B" opacity="1.000000" stroke="none" 
	d="
M239.763611,11.417407 
	C234.903763,11.767832 229.568634,11.992097 223.957397,11.833852 
	C228.883636,11.397977 234.085999,11.344612 239.763611,11.417407 
z"/>
<path fill="#FF4141" opacity="1.000000" stroke="none" 
	d="
M276.866791,16.295643 
	C277.051361,17.309978 276.997253,18.578503 276.633209,19.926870 
	C276.424896,18.854420 276.526520,17.702126 276.866791,16.295643 
z"/>
<path fill="#FFEBEB" opacity="1.000000" stroke="none" 
	d="
M75.903763,29.356844 
	C76.058159,27.791424 76.078308,26.616934 76.270485,25.471300 
	C76.683395,23.009768 75.853172,19.684902 79.850716,19.444147 
	C83.207825,19.241962 87.331848,18.969088 88.262146,22.905046 
	C88.882523,25.529745 88.107727,29.790218 86.278885,31.347681 
	C84.131958,33.176022 80.175880,32.949287 76.970497,33.321701 
	C76.737213,33.348804 76.228287,31.003277 75.903763,29.356844 
z"/>
<path fill="#FFF7F7" opacity="1.000000" stroke="none" 
	d="
M128.081467,39.840218 
	C126.970268,43.013481 126.615250,46.505379 124.683914,48.314072 
	C122.726067,50.147598 119.080215,51.253117 116.423981,50.882687 
	C114.698982,50.642124 112.071022,47.106190 112.186417,45.187359 
	C112.609741,38.148026 113.584503,31.066753 115.204666,24.202600 
	C116.181023,20.066050 119.940842,18.327381 124.266670,19.131628 
	C128.633514,19.943501 129.501434,23.354380 129.312439,27.068613 
	C129.102493,31.194975 128.549637,35.303886 128.081467,39.840218 
z"/>
<path fill="#FFEAEA" opacity="1.000000" stroke="none" 
	d="
M240.405914,30.273300 
	C238.556519,31.580639 236.995361,33.023930 235.200806,33.426273 
	C229.437180,34.718498 228.329163,33.585037 228.945175,27.765457 
	C228.979904,27.437300 228.924454,27.080322 229.034592,26.782457 
	C229.932816,24.353104 230.332870,20.414951 231.903107,19.869799 
	C234.245651,19.056522 238.519760,19.730791 239.936264,21.449747 
	C241.411789,23.240353 240.471375,27.021759 240.405914,30.273300 
z"/>
<path fill="#FF2B2B" opacity="1.000000" stroke="none" 
	d="
M222.607483,15.272817 
	C222.450500,15.147518 222.428253,14.930399 222.406006,14.713278 
	C222.518082,14.869183 222.630142,15.025089 222.607483,15.272817 
z"/>
</svg>