<?xml version="1.0" standalone="no"?>
<!DOCTYPE svg PUBLIC "-//W3C//DTD SVG 20010904//EN"
 "http://www.w3.org/TR/2001/REC-SVG-20010904/DTD/svg10.dtd">
<svg version="1.0" xmlns="http://www.w3.org/2000/svg"
 width="1024.000000pt" height="1024.000000pt" viewBox="0 0 1024.000000 1024.000000"
 preserveAspectRatio="xMidYMid meet">

<g transform="translate(0.000000,1024.000000) scale(0.100000,-0.100000)"
fill="#000000" stroke="none">
<path d="M2201 6914 c-84 -22 -159 -70 -241 -153 -160 -162 -255 -412 -249
-656 l3 -100 -85 -6 c-406 -30 -666 -255 -754 -652 -13 -60 -16 -108 -13 -210
9 -233 71 -362 261 -543 147 -140 281 -215 564 -318 271 -98 448 -130 713
-130 178 1 204 3 295 27 154 40 289 113 391 210 46 44 100 105 120 137 l35 57
67 7 c66 6 169 29 180 41 18 18 -20 63 -95 114 l-83 56 0 75 c0 161 -67 341
-184 493 -37 49 -66 90 -64 92 2 1 23 13 48 25 135 68 336 251 409 373 48 82
82 181 88 262 6 81 -21 201 -62 271 -33 57 -107 121 -173 152 -68 31 -194 41
-281 23 -78 -17 -222 -89 -307 -154 l-71 -54 5 86 c6 107 -9 180 -54 271 -86
171 -275 255 -463 204z m226 -85 c142 -54 223 -207 210 -399 -8 -113 -28 -173
-83 -256 -26 -38 -71 -120 -101 -181 -30 -62 -57 -113 -60 -113 -3 0 -47 13
-98 30 -108 34 -262 66 -394 80 -52 6 -97 13 -100 16 -14 14 -12 196 4 279 72
387 362 641 622 544z m881 -344 c180 -54 271 -280 197 -490 -58 -164 -236
-355 -427 -460 l-68 -37 -67 63 c-89 82 -221 168 -361 236 -130 63 -126 46
-52 193 100 200 248 352 435 449 115 59 241 76 343 46z m-1393 -566 c106 -15
105 -14 105 -64 0 -171 -117 -607 -253 -945 -84 -210 -227 -480 -254 -480 -23
0 -163 78 -232 129 -95 71 -221 205 -265 283 -59 106 -79 207 -73 363 8 194
48 315 152 453 167 221 451 312 820 261z m694 -225 c58 -31 111 -60 117 -65
13 -10 6 -61 -32 -243 -85 -405 -189 -721 -336 -1025 l-70 -144 -77 6 c-76 5
-225 33 -248 46 -8 4 -3 21 19 56 135 216 250 460 328 693 63 191 102 347 176
710 2 12 7 22 11 22 3 0 54 -25 112 -56z m558 -551 c83 -180 84 -361 3 -529
-53 -110 -192 -240 -327 -308 -29 -14 -54 -26 -57 -26 -2 0 6 21 19 48 45 93
154 379 190 496 31 104 74 301 91 420 l5 39 21 -34 c12 -19 36 -66 55 -106z"/>
<path d="M1364 5496 c-30 -30 -34 -40 -34 -86 0 -46 4 -56 34 -86 28 -28 41
-34 78 -34 101 0 159 91 113 180 -22 43 -53 60 -108 60 -42 0 -54 -5 -83 -34z"/>
<path d="M4395 6236 c-68 -22 -108 -47 -173 -110 -68 -65 -138 -169 -171 -252
-24 -61 -47 -173 -56 -269 -22 -240 90 -497 251 -576 58 -29 70 -31 127 -26
99 10 151 32 201 88 72 81 116 231 116 400 0 88 -1 92 -30 119 -44 41 -92 54
-208 54 -102 1 -104 1 -128 -28 -35 -39 -31 -100 9 -129 24 -19 33 -20 79 -10
64 13 118 1 118 -27 0 -35 -29 -167 -45 -206 -33 -80 -99 -118 -153 -90 -64
33 -129 135 -159 249 -12 46 -14 87 -10 162 11 183 61 309 164 412 73 74 109
88 132 52 29 -44 51 -59 84 -59 53 0 70 27 65 100 -9 118 -102 183 -213 146z"/>
<path d="M4936 6159 c-49 -12 -103 -45 -110 -67 -8 -23 -25 -378 -32 -667 -7
-255 1 -338 37 -367 29 -24 71 -23 104 4 l28 22 -6 165 c-4 91 -3 172 2 179 5
8 22 12 42 10 30 -3 41 -14 101 -98 37 -52 86 -130 108 -172 22 -43 51 -84 63
-93 49 -35 127 -1 127 56 0 38 -104 231 -176 325 -30 39 -54 75 -54 80 1 5 24
27 52 49 110 87 159 174 159 284 0 75 -16 125 -57 174 -82 98 -249 148 -388
116z m197 -173 c44 -18 87 -71 87 -106 0 -47 -17 -78 -77 -141 -56 -59 -168
-137 -180 -125 -12 12 16 369 29 378 20 12 105 9 141 -6z"/>
<path d="M7590 6141 c-98 -35 -96 -29 -103 -332 -4 -145 -7 -355 -7 -466 0
-190 1 -204 20 -223 22 -22 69 -26 100 -10 30 16 40 74 40 238 l0 152 30 0
c28 0 38 -12 139 -167 135 -208 137 -210 167 -229 45 -30 114 9 114 64 0 29
-26 74 -157 273 -40 60 -73 113 -73 118 0 5 25 27 55 50 162 122 191 305 70
439 -66 73 -139 105 -250 109 -70 3 -102 -1 -145 -16z m240 -166 c54 -28 76
-105 46 -164 -21 -40 -91 -99 -150 -127 -89 -41 -86 -46 -80 129 3 83 7 158
10 165 5 18 137 16 174 -3z"/>
<path d="M8120 6110 c-11 -11 -22 -31 -26 -45 -7 -27 -8 -24 180 -385 l91
-175 -4 -176 c-4 -243 8 -279 93 -279 25 0 40 7 55 26 20 25 21 40 21 227 l0
200 35 63 c19 35 57 94 84 132 112 154 201 304 201 339 0 71 -82 109 -129 59
-12 -12 -77 -108 -146 -211 l-123 -188 -45 89 c-89 178 -159 299 -183 322 -31
27 -77 29 -104 2z"/>
<path d="M6550 6109 c-202 -41 -357 -259 -377 -528 -10 -149 48 -322 135 -402
92 -86 202 -111 326 -75 122 36 196 153 130 205 -36 28 -62 26 -130 -10 -50
-26 -67 -30 -111 -27 -139 12 -214 178 -169 379 30 134 80 217 165 271 53 33
84 35 118 8 35 -27 78 -26 108 5 33 32 32 75 -1 115 -47 56 -113 76 -194 59z"/>
<path d="M6974 6086 c-37 -16 -61 -47 -74 -96 -12 -46 -40 -464 -40 -600 0
-184 34 -291 97 -306 14 -4 81 3 148 14 67 12 133 22 146 22 37 0 97 19 114
36 24 24 19 81 -10 109 -29 30 -51 31 -202 8 -62 -9 -116 -14 -119 -10 -4 3
-9 56 -12 118 -6 129 -6 128 83 129 97 2 157 15 177 40 22 28 23 78 2 109 -17
23 -20 24 -135 19 l-118 -5 6 96 c3 53 8 112 12 131 l7 35 131 0 c115 0 133 2
152 19 44 40 12 116 -57 136 -55 15 -270 12 -308 -4z"/>
<path d="M5696 6004 c-35 -11 -65 -32 -105 -72 -103 -104 -146 -233 -139 -417
7 -171 64 -292 166 -353 41 -23 58 -27 127 -27 125 0 217 54 281 162 81 139
86 426 9 559 -27 47 -98 115 -145 139 -46 24 -135 28 -194 9z m172 -200 c48
-56 66 -128 59 -239 -7 -104 -18 -149 -50 -195 -73 -108 -179 -101 -237 14
-48 99 -36 296 26 389 57 87 142 100 202 31z"/>
<path d="M5018 4840 c-101 -16 -182 -72 -180 -127 0 -15 4 -64 7 -108 4 -44 2
-161 -4 -259 -6 -99 -14 -299 -18 -445 -7 -300 -4 -319 62 -347 45 -18 172
-18 255 1 201 47 351 140 416 259 27 47 29 60 29 151 0 84 -4 107 -22 141 -27
50 -89 105 -154 138 l-48 23 30 29 c51 49 101 162 107 243 6 94 -2 131 -42
177 -80 94 -274 149 -438 124z m216 -194 c51 -21 76 -54 76 -98 0 -66 -52
-142 -131 -190 -24 -15 -121 -48 -141 -48 -8 0 -1 309 7 338 6 17 146 16 189
-2z m59 -550 c74 -36 107 -75 107 -127 0 -73 -44 -126 -145 -177 -75 -37 -148
-60 -200 -64 l-40 -3 0 195 0 194 25 8 c14 4 64 6 111 5 70 -3 96 -8 142 -31z"/>
<path d="M6670 4751 c-88 -29 -118 -61 -135 -143 -25 -120 -47 -464 -43 -685
3 -197 4 -214 24 -240 39 -52 73 -64 177 -64 87 0 335 37 414 62 39 12 73 52
73 86 0 14 -13 37 -29 54 -36 35 -57 36 -211 9 -68 -13 -143 -20 -189 -18
l-76 3 0 140 0 140 150 6 c83 4 162 12 177 17 34 14 48 40 48 91 0 31 -6 44
-27 62 -27 21 -34 21 -182 15 l-154 -6 6 121 c4 67 13 133 20 148 l12 26 170
0 c190 0 207 4 225 60 15 45 -5 80 -58 102 -42 18 -348 29 -392 14z"/>
<path d="M5862 4732 c-68 -25 -97 -53 -119 -116 -15 -45 -17 -98 -18 -446 0
-357 2 -400 18 -447 34 -97 98 -124 243 -103 260 37 376 67 394 100 26 49 -2
113 -55 126 -14 3 -78 -3 -143 -15 -65 -11 -152 -21 -194 -21 -91 0 -88 -6
-88 161 l0 117 63 6 c34 3 107 8 161 12 86 6 103 10 123 30 26 26 31 87 10
115 -28 37 -53 41 -209 33 l-151 -7 6 63 c4 35 7 93 7 131 0 100 -3 99 205 99
172 0 174 0 204 26 52 43 37 94 -39 135 -17 9 -78 14 -195 16 -146 3 -177 1
-223 -15z"/>
</g>
</svg>
