<?xml version="1.0" encoding="UTF-8"?>
<svg version="1.1" xmlns="http://www.w3.org/2000/svg" width="1024" height="397">
<path d="M0 0 C337.92 0 675.84 0 1024 0 C1024 131.01 1024 262.02 1024 397 C686.08 397 348.16 397 0 397 C0 265.99 0 134.98 0 0 Z " fill="#FEEA54" transform="translate(0,0)"/>
<path d="M0 0 C9.14342254 7.80656834 14.45486128 16.86431818 17.125 28.6875 C17.35093897 32.33853253 17.31497551 35.96887794 17.25 39.625 C17.24097656 40.59501953 17.23195313 41.56503906 17.22265625 42.56445312 C17.19926107 44.93906407 17.16648176 47.31314776 17.125 49.6875 C17.96417969 48.96046875 17.96417969 48.96046875 18.8203125 48.21875 C34.39399369 35.19895222 51.36824863 26.88862484 72 28.44384766 C82.90513615 29.69422976 91.58970351 36.05913368 98.51953125 44.2734375 C105.63383745 54.97086142 107.72884318 67.93509867 105.44140625 80.41796875 C99.7069075 103.76047196 82.47657703 122.10499112 62.5 134.69921875 C54.03266208 139.6875 54.03266208 139.6875 51.125 139.6875 C51.8984375 140.656875 52.671875 141.62625 53.46875 142.625 C63.6632516 155.64529412 70.95632413 168.5780407 75.125 184.6875 C75.30571045 185.31841553 75.4864209 185.94933105 75.67260742 186.59936523 C76.14227437 188.76723433 76.16174864 190.55926172 76.0546875 192.76953125 C75.59108318 201.70142524 75.59108318 201.70142524 79.4609375 209.28515625 C82.28313562 211.00647011 85.11511191 212.33058324 88.125 213.6875 C91.63839251 215.93489353 92.91273546 216.83844183 93.9375 220.9375 C94.0303125 222.29875 94.0303125 222.29875 94.125 223.6875 C91.64764105 224.34103641 89.16854261 224.98571463 86.6875 225.625 C85.954104 225.81827881 85.22070801 226.01155762 84.46508789 226.21069336 C80.55927692 227.20647859 77.1161934 227.82062184 73.0625 227.75 C70.96951433 227.82165348 70.96951433 227.82165348 69.125 228.6875 C67.16648094 231.13214312 65.71893958 233.7140218 64.1796875 236.44140625 C53.08365157 253.9714554 32.92301067 264.43645207 13.2824707 269.22924805 C3.92228139 271.21737471 -5.25447815 272.04860369 -14.8125 272 C-15.97982666 271.99508545 -17.14715332 271.9901709 -18.34985352 271.98510742 C-64.58248288 271.37160877 -115.88988755 254.19429622 -148.80444336 221.19067383 C-158.60991581 210.99934103 -164.13695494 200.27128874 -167.875 186.6875 C-168.05385742 186.07712891 -168.23271484 185.46675781 -168.41699219 184.83789062 C-171.1807892 171.86159845 -169.92360606 155.27637317 -165.875 142.6875 C-165.67632324 142.05199219 -165.47764648 141.41648438 -165.27294922 140.76171875 C-159.20637445 121.74857357 -147.55573168 105.50194105 -129.875 95.6875 C-114.69373759 88.01059076 -99.7892451 85.09440309 -82.875 85.6875 C-83.205 84.6975 -83.535 83.7075 -83.875 82.6875 C-86.12850608 57.24308519 -78.71630197 32.65491784 -62.63671875 12.7734375 C-62.05535156 12.08507812 -61.47398437 11.39671875 -60.875 10.6875 C-60.36582031 10.08164062 -59.85664063 9.47578125 -59.33203125 8.8515625 C-44.25103534 -7.60720341 -18.80447348 -13.96184988 0 0 Z " fill="#11140E" transform="translate(254.875,34.3125)"/>
<path d="M0 0 C7.76242585 4.86336978 11.7574222 12.35431212 14.640625 20.8984375 C17.03366349 34.89251043 14.17938567 48.39899559 6.16796875 60.1171875 C-3.97300497 73.60194174 -15.01190155 84.84276058 -30 93 C-29.34 94.65 -28.68 96.3 -28 98 C-29.98 98.99 -29.98 98.99 -32 100 C-31.2265625 100.969375 -30.453125 101.93875 -29.65625 102.9375 C-19.4617484 115.95779412 -12.16867587 128.8905407 -8 145 C-7.81928955 145.63091553 -7.6385791 146.26183105 -7.45239258 146.91186523 C-6.98272563 149.07973433 -6.96325136 150.87176172 -7.0703125 153.08203125 C-7.53391682 162.01392524 -7.53391682 162.01392524 -3.6640625 169.59765625 C-0.84186438 171.31897011 1.99011191 172.64308324 5 174 C8.51339251 176.24739353 9.78773546 177.15094183 10.8125 181.25 C10.874375 182.1575 10.93625 183.065 11 184 C8.52264105 184.65353641 6.04354261 185.29821463 3.5625 185.9375 C2.829104 186.13077881 2.09570801 186.32405762 1.34008789 186.52319336 C-2.56572308 187.51897859 -6.0088066 188.13312184 -10.0625 188.0625 C-12.15548567 188.13415348 -12.15548567 188.13415348 -14 189 C-15.95851906 191.44464312 -17.40606042 194.0265218 -18.9453125 196.75390625 C-30.56433802 215.11019942 -51.53077757 225.12423571 -72 230 C-79.38556538 231.47378249 -86.47341147 232.25513859 -94 232 C-94 231.67 -94 231.34 -94 231 C-103.9 230.505 -103.9 230.505 -114 230 C-112.68 229.67 -111.36 229.34 -110 229 C-110 228.34 -110 227.68 -110 227 C-111.85625 226.814375 -111.85625 226.814375 -113.75 226.625 C-116.08809734 226.39119027 -117.75970564 226.12486194 -119.85400391 225.03662109 C-122.09204277 223.95553884 -124.03983262 223.46149017 -126.4765625 223 C-127.311875 222.835 -128.1471875 222.67 -129.0078125 222.5 C-130.76014216 222.16522657 -132.51274984 221.83190535 -134.265625 221.5 C-135.09835938 221.335 -135.93109375 221.17 -136.7890625 221 C-137.54912598 220.855625 -138.30918945 220.71125 -139.09228516 220.5625 C-141 220 -141 220 -143 218 C-142.42668945 217.03513672 -142.42668945 217.03513672 -141.84179688 216.05078125 C-130.75374009 197.38150837 -130.75374009 197.38150837 -121 178 C-120.65163086 177.2481543 -120.30326172 176.49630859 -119.94433594 175.72167969 C-106.22996204 145.8158864 -98.27823699 114.21196382 -91.86450195 82.06298828 C-91.63335693 80.90524902 -91.40221191 79.74750977 -91.1640625 78.5546875 C-90.96248535 77.52843262 -90.7609082 76.50217773 -90.55322266 75.44482422 C-90 73 -90 73 -89 71 C-88.01 71 -87.02 71 -86 71 C-86.66 70.01 -87.32 69.02 -88 68 C-88 67.01 -88 66.02 -88 65 C-87.01 65 -86.02 65 -85 65 C-85 65.66 -85 66.32 -85 67 C-81.04 67.99 -77.08 68.98 -73 70 C-74.21558594 69.45730469 -75.43117188 68.91460937 -76.68359375 68.35546875 C-78.26847926 67.63336115 -79.85310118 66.91067484 -81.4375 66.1875 C-82.23994141 65.83107422 -83.04238281 65.47464844 -83.86914062 65.10742188 C-84.63291016 64.75615234 -85.39667969 64.40488281 -86.18359375 64.04296875 C-87.24404907 63.56380005 -87.24404907 63.56380005 -88.32592773 63.07495117 C-90 62 -90 62 -91 59 C-90.33837891 56.92211914 -90.33837891 56.92211914 -89.2265625 54.53515625 C-88.81833252 53.65819092 -88.41010254 52.78122559 -87.98950195 51.87768555 C-87.53921631 50.94867432 -87.08893066 50.01966309 -86.625 49.0625 C-86.16891357 48.11479736 -85.71282715 47.16709473 -85.24291992 46.19067383 C-81.55342526 38.72549627 -77.41080268 32.35359406 -72 26 C-71.46375 25.30390625 -70.9275 24.6078125 -70.375 23.890625 C-54.81036241 4.43482801 -24.32065418 -13.29105897 0 0 Z " fill="#11140F" transform="translate(338,74)"/>
<path d="M0 0 C2.0250467 0.01068883 4.0491994 0.00006535 6.07421875 -0.01269531 C25.18823819 0.02478316 25.18823819 0.02478316 31.66015625 3.26074219 C32.62817155 51.80702568 8.40695149 110.09574162 -17.33984375 150.26074219 C-22.6816085 149.73070662 -26.46387595 147.89032314 -31.02734375 145.26074219 C-31.72851318 144.86137451 -32.42968262 144.46200684 -33.15209961 144.05053711 C-39.44695787 140.37103143 -44.86434001 136.07955545 -50.33984375 131.26074219 C-50.95859375 130.78507813 -51.57734375 130.30941406 -52.21484375 129.81933594 C-65.16747173 119.77505267 -73.32230503 104.07908635 -76.33984375 88.26074219 C-76.76677018 84.22836798 -76.86519961 80.25132812 -76.83984375 76.19824219 C-76.83412354 75.11768555 -76.82840332 74.03712891 -76.82250977 72.92382812 C-76.36579798 52.09038953 -68.90999746 33.99030002 -54.18359375 19.07714844 C-39.01511579 4.95016808 -20.32204147 -0.12725749 0 0 Z " fill="#FDE751" transform="translate(170.33984375,126.7392578125)"/>
<path d="M0 0 C1.52584717 0.01135986 1.52584717 0.01135986 3.08251953 0.02294922 C15.37754341 0.29155363 26.44818561 3.12629364 35.4375 12.05078125 C40.39944223 17.73164125 40.22966161 23.28734197 40.08984375 30.5078125 C39.36229185 40.81650558 34.28649308 50.34053328 26.8125 57.4375 C27.59753906 57.85 28.38257813 58.2625 29.19140625 58.6875 C38.7613924 63.9480568 45.04970028 68.96947868 48.8125 79.4375 C50.00830187 90.00580301 49.20283356 99.14629675 43.03515625 107.984375 C32.52931857 120.89657774 15.68974616 126.98757306 -0.1875 130.4375 C-3.47589054 130.70269279 -6.76451316 130.7143075 -10.0625 130.75 C-10.94808594 130.77900391 -11.83367187 130.80800781 -12.74609375 130.83789062 C-18.38642244 130.89252868 -21.80634299 130.35856685 -26.1875 126.4375 C-28.58909121 122.85981879 -28.44563457 119.59146858 -28.453125 115.359375 C-28.45576355 114.65310471 -28.4584021 113.94683441 -28.46112061 113.21916199 C-28.46499154 110.8751034 -28.45213108 108.53151166 -28.4375 106.1875 C-28.43484131 104.96717575 -28.43484131 104.96717575 -28.43212891 103.72219849 C-28.3955688 89.24843759 -27.75596948 74.83719953 -26.88842773 60.39208984 C-26.39929988 51.95012461 -26.12932462 43.57759025 -26.30078125 35.12109375 C-26.31495087 34.28950241 -26.32912048 33.45791107 -26.34371948 32.60112 C-26.41557065 28.64059888 -26.52596605 24.68750954 -26.70117188 20.73022461 C-27.01433462 10.84134774 -27.01433462 10.84134774 -24.88818359 7.23144531 C-23.07179451 5.5434357 -21.41944656 4.50715289 -19.1875 3.4375 C-18.27097656 2.94793823 -18.27097656 2.94793823 -17.3359375 2.44848633 C-11.76145961 -0.08844933 -6.03054268 -0.06255956 0 0 Z " fill="#10130E" transform="translate(510.1875,235.5625)"/>
<path d="M0 0 C7.76242585 4.86336978 11.7574222 12.35431212 14.640625 20.8984375 C17.03366349 34.89251043 14.17938567 48.39899559 6.16796875 60.1171875 C-3.67459295 73.20513441 -14.28316579 83.93215352 -28.5 92.25 C-29.18288086 92.65774658 -29.86576172 93.06549316 -30.56933594 93.4855957 C-35.34670057 96.14596239 -35.34670057 96.14596239 -38.16796875 95.515625 C-40.4839895 93.59959931 -42.65506962 91.5944639 -44.8125 89.5 C-58.20290437 76.98447193 -74.7450398 69.10023715 -91 61 C-89.13129873 54.86151797 -86.84250266 49.21667217 -83.8125 43.5625 C-83.41957764 42.82531738 -83.02665527 42.08813477 -82.62182617 41.32861328 C-79.34255928 35.33122337 -75.52225032 30.12782163 -71 25 C-70.55785156 24.41605469 -70.11570312 23.83210938 -69.66015625 23.23046875 C-54.63552627 3.73041707 -23.68286139 -12.9425099 0 0 Z " fill="#FDE751" transform="translate(338,74)"/>
<path d="M0 0 C7.33971756 4.31447745 11.76485544 9.60620489 15.24609375 17.3203125 C15.56578125 17.96097656 15.88546875 18.60164063 16.21484375 19.26171875 C21.3080701 31.31097183 18.9342177 47.57913561 14.24609375 59.3203125 C12.75469001 61.83631457 11.11506753 64.07803441 9.31640625 66.3828125 C6.47674186 70.41192121 4.26268103 74.6994511 1.99609375 79.0703125 C1.57183105 79.88725586 1.14756836 80.70419922 0.71044922 81.54589844 C-1.4780213 85.78730895 -3.63052841 90.04598048 -5.75390625 94.3203125 C-11.04107263 93.19310333 -16.27249745 91.94422913 -21.48706055 90.51879883 C-36.1026611 86.52826959 -50.71016171 84.02073575 -65.75390625 82.3203125 C-70.55277897 62.73781574 -64.73086331 40.72292134 -54.62866211 23.79736328 C-43.25530424 5.70170164 -22.15769789 -10.40574975 0 0 Z " fill="#FDE751" transform="translate(245.75390625,37.6796875)"/>
<path d="M0 0 C5.44768205 4.49433769 10.22254735 9.23014204 12.5 16.0625 C13.39214684 27.29080523 12.75241048 35.35408251 5.59765625 44.4921875 C1.92275413 48.79485601 -1.94505699 52.70051826 -6.5 56.0625 C-7.16 56.0625 -7.82 56.0625 -8.5 56.0625 C-6.26532532 60.25251503 -3.83089832 63.98323504 -0.9375 67.75 C2.95756809 73.04405285 6.27189618 78.58969169 9.5 84.3125 C10.23972046 85.59000122 10.23972046 85.59000122 10.99438477 86.89331055 C13.68372543 91.75790217 15.33620819 95.34841071 14.5 101.0625 C11.94296344 103.99557135 10.33417929 104.92347012 6.5 105.5625 C2.69602574 104.92850429 1.30135012 103.69982653 -1.5 101.0625 C-2.81554514 98.83597522 -3.95705288 96.69786907 -5.0625 94.375 C-9.60090676 85.33441223 -15.29837845 75.26412155 -22.5 68.0625 C-24.83297433 68.02157063 -27.16705225 68.02008277 -29.5 68.0625 C-29.47381592 69.10180664 -29.44763184 70.14111328 -29.4206543 71.21191406 C-29.33005593 75.07318538 -29.27271696 78.93436309 -29.2253418 82.79638672 C-29.20021922 84.46679489 -29.16611448 86.13709337 -29.12280273 87.80712891 C-29.06204601 90.2102362 -29.03376979 92.61188904 -29.01171875 95.015625 C-28.98591232 95.76056213 -28.9601059 96.50549927 -28.93351746 97.27301025 C-28.93145407 101.09989554 -29.16854787 102.71170942 -31.83911133 105.53808594 C-35.07050208 107.3893387 -36.83016818 107.6090707 -40.5 107.0625 C-42.8828938 105.63464176 -44.23183667 104.70030683 -45.31933594 102.11376953 C-46.71608226 94.39551367 -46.80603934 86.76281106 -46.75 78.9375 C-46.7478952 78.20815247 -46.74579041 77.47880493 -46.74362183 76.72735596 C-46.69587215 62.28684728 -46.16341492 47.86411412 -45.5625 33.4375 C-45.51911499 32.38898865 -45.47572998 31.34047729 -45.43103027 30.26019287 C-45.3038353 27.24354234 -45.17094186 24.2272126 -45.03515625 21.2109375 C-44.99654984 20.31846313 -44.95794342 19.42598877 -44.91816711 18.50646973 C-44.72326322 14.36614397 -44.46939239 10.23550207 -44.08764648 6.10791016 C-44.02214096 5.39752594 -43.95663544 4.68714172 -43.8891449 3.95523071 C-43.15743391 0.39632021 -41.41113202 -0.91753085 -38.5 -2.9375 C-26.32696693 -8.44434829 -11.31423604 -7.1076611 0 0 Z " fill="#10130E" transform="translate(525.5,108.9375)"/>
<path d="M0 0 C10.46552514 6.22807146 16.42001683 14.70104 19.44799805 26.22900391 C20.44108308 30.99503774 20.56383583 35.62921435 20.51171875 40.484375 C20.50414551 41.48291504 20.49657227 42.48145508 20.48876953 43.51025391 C20.19751925 56.69730116 17.53187359 68.48813474 8.15625 78.2265625 C0.61010804 85.26184378 -7.3652807 87.60440778 -17.625 87.44921875 C-25.0971355 86.75148114 -30.74398139 83.03662583 -35.48828125 77.3671875 C-45.20362867 64.10573827 -45.4734165 48.07973709 -43.41796875 32.34765625 C-41.00107646 20.61044944 -35.81982343 11.32928527 -26.92578125 3.234375 C-18.84946814 -2.07051697 -9.07424516 -3.90210948 0 0 Z " fill="#11140E" transform="translate(588.92578125,119.765625)"/>
<path d="M0 0 C6.53745588 4.4891348 12.24220511 10.73055682 13.83203125 18.6796875 C14.80539882 27.27269809 13.09904605 35.1087015 8.03125 42.19921875 C4.09678733 46.80597795 -0.08858339 50.39925112 -5.16796875 53.6796875 C-4.57150542 57.90725214 -2.1017673 61.01006755 0.26953125 64.4296875 C4.57304005 70.74591184 8.6827126 77.1583545 12.69506836 83.66308594 C14.53696035 86.84243567 14.53696035 86.84243567 16.83203125 89.6796875 C17.41238839 95.83147321 17.41238839 95.83147321 15.20703125 99.0546875 C12.14956718 101.1466366 10.56787768 101.82619128 6.83203125 101.6796875 C1.53982468 98.30757336 -1.81731512 93.7010302 -4.91796875 88.3671875 C-5.77272008 86.961803 -6.62821654 85.55687147 -7.484375 84.15234375 C-8.85388103 81.87521817 -10.2182682 79.59520463 -11.57763672 77.31201172 C-12.98478145 74.96420827 -14.4180898 72.63406931 -15.85546875 70.3046875 C-16.2824707 69.57338623 -16.70947266 68.84208496 -17.14941406 68.08862305 C-17.5719043 67.40968994 -17.99439453 66.73075684 -18.4296875 66.03125 C-18.79022217 65.43135254 -19.15075684 64.83145508 -19.5222168 64.21337891 C-22.03105696 61.87536765 -24.89195294 61.45766617 -28.16796875 60.6796875 C-28.15749512 61.58211182 -28.14702148 62.48453613 -28.13623047 63.41430664 C-28.10197339 66.78949583 -28.07698508 70.16449795 -28.05810547 73.53979492 C-28.04810025 74.99555391 -28.03449179 76.45129307 -28.01708984 77.90698242 C-27.99259831 80.0096529 -27.98143081 82.11205574 -27.97265625 84.21484375 C-27.96218262 85.4769165 -27.95170898 86.73898926 -27.94091797 88.03930664 C-28.18132805 91.89388156 -28.82149102 95.06120343 -30.16796875 98.6796875 C-33.88855235 101.16007657 -35.76593446 101.14305953 -40.16796875 100.6796875 C-42.78944495 98.65941878 -44.01311683 97.47088802 -44.65571594 94.18759155 C-44.6498497 93.2508963 -44.64398346 92.31420105 -44.63793945 91.34912109 C-44.6408046 90.27684265 -44.64366974 89.20456421 -44.6466217 88.09979248 C-44.62917404 86.93764221 -44.61172638 85.77549194 -44.59375 84.578125 C-44.59100571 83.3647345 -44.58826141 82.15134399 -44.58543396 80.90118408 C-44.57335047 77.62735252 -44.54328361 74.35434899 -44.50334167 71.08075714 C-44.47289307 68.38363831 -44.45540346 65.68650057 -44.43797112 62.98927116 C-44.39073762 55.73205592 -44.30830778 48.47573212 -44.21221924 41.21899414 C-44.17232555 38.02815925 -44.14171515 34.83746488 -44.11669922 31.64648438 C-44.08392685 27.5711974 -44.03206793 23.49687991 -43.95541382 19.42218018 C-43.93065062 18.02183861 -43.9115342 16.62138464 -43.89834595 15.22088623 C-43.87740964 13.32402751 -43.82822477 11.42754176 -43.77734375 9.53125 C-43.75639648 8.50854004 -43.73544922 7.48583008 -43.71386719 6.43212891 C-42.88907839 2.27351135 -40.6398767 -0.30710565 -37.1875 -2.68359375 C-24.9947185 -7.9275688 -11.22342345 -6.83516599 0 0 Z " fill="#10130E" transform="translate(792.16796875,109.3203125)"/>
<path d="M0 0 C5.27264841 1.55324834 9.91844499 3.87254927 14.75 6.4375 C15.51699219 6.83259766 16.28398437 7.22769531 17.07421875 7.63476562 C17.80769531 8.02212891 18.54117188 8.40949219 19.296875 8.80859375 C19.96041992 9.15720459 20.62396484 9.50581543 21.30761719 9.86499023 C23 11 23 11 25 14 C24.68386805 17.10243219 24.22961007 20.0125048 23.625 23.0625 C23.44074463 24.02003174 23.25648926 24.97756348 23.06665039 25.96411133 C14.70837462 68.22479632 4.20970672 116.68543992 -20 153 C-27.68063202 154.40453073 -35.65704426 152.68781721 -43.1875 151.125 C-44.02531006 150.95154053 -44.86312012 150.77808105 -45.72631836 150.59936523 C-51.73729928 149.26270072 -51.73729928 149.26270072 -54 147 C-53.42668945 146.03513672 -53.42668945 146.03513672 -52.84179688 145.05078125 C-41.75374009 126.38150837 -41.75374009 126.38150837 -32 107 C-31.65163086 106.2481543 -31.30326172 105.49630859 -30.94433594 104.72167969 C-17.22996204 74.8158864 -9.27823699 43.21196382 -2.86450195 11.06298828 C-2.63335693 9.90524902 -2.40221191 8.74750977 -2.1640625 7.5546875 C-1.96248535 6.52843262 -1.7609082 5.50217773 -1.55322266 4.44482422 C-1 2 -1 2 0 0 Z " fill="#FCE751" transform="translate(249,145)"/>
<path d="M0 0 C1.15951172 -0.00322266 2.31902344 -0.00644531 3.51367188 -0.00976562 C20.73069918 0.09669154 20.73069918 0.09669154 27.8125 4.0625 C30.19197808 6.9178737 30.6875 8.60117792 30.6875 12.3125 C29.6875 15.0625 29.6875 15.0625 27.6875 17.3125 C22.82415939 19.05023503 18.6519092 19.52821617 13.51171875 19.40234375 C12.17643546 19.38195278 10.84114888 19.36177654 9.50585938 19.34179688 C7.42749826 19.29807051 5.34937805 19.24934287 3.27124023 19.19604492 C1.24749478 19.14795639 -0.77666884 19.1186038 -2.80078125 19.08984375 C-4.60349487 19.04718384 -4.60349487 19.04718384 -6.44262695 19.00366211 C-7.86321411 19.15653687 -7.86321411 19.15653687 -9.3125 19.3125 C-11.56628386 22.69317579 -11.67270013 24.30114476 -11.9453125 28.29296875 C-12.02910156 29.45634766 -12.11289062 30.61972656 -12.19921875 31.81835938 C-12.31716797 33.64077148 -12.31716797 33.64077148 -12.4375 35.5 C-12.52386719 36.72654297 -12.61023438 37.95308594 -12.69921875 39.21679688 C-12.91153792 42.24824286 -13.11563079 45.28001785 -13.3125 48.3125 C-12.63880371 48.24393799 -11.96510742 48.17537598 -11.27099609 48.10473633 C-4.82007303 47.47869975 1.58191836 47.07466108 8.0625 47 C8.92488281 46.97099609 9.78726563 46.94199219 10.67578125 46.91210938 C14.78394682 46.87096442 17.12017256 46.99130317 20.7578125 49.05078125 C22.91309932 51.57691701 23.32176771 52.54531901 23.1875 55.8125 C23.1771875 56.5653125 23.166875 57.318125 23.15625 58.09375 C22.5686746 60.87494023 21.58646778 62.20530974 19.6875 64.3125 C12.73882878 67.06298098 4.4282334 66.72197237 -2.9375 66.9375 C-8.568125 67.123125 -8.568125 67.123125 -14.3125 67.3125 C-14.3125 76.2225 -14.3125 85.1325 -14.3125 94.3125 C-5.37822631 94.53773379 2.85515671 94.53385966 11.625 92.8125 C26.8361141 89.85771128 26.8361141 89.85771128 32.75 92.875 C35.33037006 96.12127201 35.76002219 98.17873523 35.6875 102.3125 C34.26816758 105.43503132 32.88386273 106.80988607 29.70703125 108.14453125 C26.72460606 109.0311982 23.7333831 109.67368776 20.6875 110.3125 C19.60154541 110.56628418 19.60154541 110.56628418 18.49365234 110.82519531 C8.08868694 113.25465156 -2.05050738 114.70721699 -12.75 114.8125 C-13.71454102 114.83078857 -14.67908203 114.84907715 -15.67285156 114.86791992 C-21.53348386 114.81661088 -24.8215841 114.14551102 -29.3125 110.3125 C-32.72182729 106.55048369 -33.42645473 103.07766164 -33.47363281 98.09936523 C-33.4831044 97.27042755 -33.49257599 96.44148987 -33.50233459 95.58743286 C-33.50672043 94.69104095 -33.51110626 93.79464905 -33.515625 92.87109375 C-33.52254868 91.92765106 -33.52947235 90.98420837 -33.53660583 90.01217651 C-33.55401932 86.92474279 -33.56021137 83.83748075 -33.5625 80.75 C-33.56383942 79.69960541 -33.56517883 78.64921082 -33.56655884 77.56698608 C-33.56268498 63.53842463 -33.21975495 49.60301078 -32 35.625 C-31.94114624 34.92204803 -31.88229248 34.21909607 -31.82165527 33.49484253 C-29.79244918 9.96251918 -29.79244918 9.96251918 -24.625 5.25 C-16.27348978 0.3651544 -9.54435341 -0.13132022 0 0 Z " fill="#10130E" transform="translate(682.3125,243.6875)"/>
<path d="M0 0 C1.26714844 -0.00322266 2.53429687 -0.00644531 3.83984375 -0.00976562 C20.87978608 0.08775746 20.87978608 0.08775746 27.0625 4.5625 C29.5 7.3125 29.5 7.3125 30.25 10.3125 C29.39386177 13.73705291 28.06939542 15.09753946 25.33047485 17.26037598 C22.04411133 19.14931862 18.78592987 19.01920695 15.07421875 18.984375 C14.28602249 18.99712463 13.49782623 19.00987427 12.68574524 19.02301025 C10.18595842 19.05915257 7.68752448 19.06201825 5.1875 19.0625 C2.6701255 19.08410012 0.15295457 19.11249552 -2.36430359 19.14483643 C-3.92674475 19.16263195 -5.48929303 19.17288546 -7.05183411 19.17498779 C-10.56879109 18.86781996 -10.56879109 18.86781996 -13.5 20.3125 C-13.72881538 22.30866505 -13.89531688 24.31204193 -14.03515625 26.31640625 C-14.12216797 27.53134766 -14.20917969 28.74628906 -14.29882812 29.99804688 C-14.38583984 31.27744141 -14.47285156 32.55683594 -14.5625 33.875 C-14.65337891 35.15826172 -14.74425781 36.44152344 -14.83789062 37.76367188 C-15.06268946 40.94635015 -15.28319818 44.12926858 -15.5 47.3125 C-14.26765625 47.2403125 -13.0353125 47.168125 -11.765625 47.09375 C15.25826782 45.55491601 15.25826782 45.55491601 19.5 48.3125 C21.61212504 51.48068756 21.83156464 53.44469252 22.05859375 57.1796875 C21.16587944 60.58823304 19.15800023 62.07909614 16.5 64.3125 C13.31787109 65.0637207 13.31787109 65.0637207 9.7734375 65.23828125 C8.4946875 65.31240234 7.2159375 65.38652344 5.8984375 65.46289062 C4.55730999 65.51738007 3.21616382 65.57141173 1.875 65.625 C0.52592724 65.69643865 -0.82303559 65.76998627 -2.171875 65.84570312 C-6.6159944 66.08137612 -11.04916169 66.3125 -15.5 66.3125 C-15.17 75.5525 -14.84 84.7925 -14.5 94.3125 C-3.83721098 93.92334712 5.90676318 93.21551409 16.3203125 90.96484375 C25.12519436 89.15843678 25.12519436 89.15843678 29.30859375 91.19140625 C31 92.375 31 92.375 33.5 95.3125 C34.17550982 99.16290599 34.1747142 101.20842222 32.125 104.5625 C24.63241478 109.55755682 14.71780597 110.30406666 5.99536133 111.67504883 C3.93584989 112.00026056 1.8791506 112.340254 -0.17773438 112.68164062 C-19.75645412 115.86047281 -19.75645412 115.86047281 -26.5 111.3125 C-34.00815062 103.80434938 -33.60569924 92.08641768 -33.63894653 82.10702515 C-33.6369223 81.11006622 -33.63489807 80.1131073 -33.6328125 79.0859375 C-33.63376923 78.02122223 -33.63472595 76.95650696 -33.63571167 75.85952759 C-33.63638951 73.60882508 -33.63456294 71.35812058 -33.63037109 69.10742188 C-33.62509195 65.74604616 -33.63029071 62.38480869 -33.63671875 59.0234375 C-33.64207818 48.2341208 -33.53791324 37.44786987 -33.1796875 26.6640625 C-33.15770294 25.73596771 -33.13571838 24.80787292 -33.11306763 23.85165405 C-32.83187237 16.79434289 -31.86218719 10.84341485 -26.875 5.5 C-18.78752226 -0.35577435 -9.6114123 -0.1222204 0 0 Z " fill="#10130E" transform="translate(605.5,244.6875)"/>
<path d="M0 0 C4.28590933 2.79515826 7.22425239 5.92275717 8.875 10.875 C9.01828384 12.70462436 9.09540343 14.54001237 9.125 16.375 C9.15078125 17.3340625 9.1765625 18.293125 9.203125 19.28125 C8.875 21.875 8.875 21.875 7.5703125 23.6875 C4.64483546 25.73668207 2.31717746 25.3497831 -1.125 24.875 C-3.75516161 22.7022578 -5.59836894 20.92826212 -7.125 17.875 C-12.86633474 17.875 -15.92320694 20.69336037 -19.88671875 24.45703125 C-32.3655463 37.93764949 -35.69594499 55.45550566 -35.40234375 73.2890625 C-34.95885034 83.95496872 -30.81887596 94.63335875 -23.58203125 102.56640625 C-20.66276489 105.20050006 -18.08951366 106.875 -14.125 106.875 C-8.92278218 105.07014892 -6.63653243 102.72485572 -4.125 97.875 C-1.52979434 90.41529258 -0.28068546 82.66567966 0.875 74.875 C-0.36636719 74.92140625 -1.60773438 74.9678125 -2.88671875 75.015625 C-4.52862171 75.05315421 -6.17055077 75.08955314 -7.8125 75.125 C-8.62912109 75.15851563 -9.44574219 75.19203125 -10.28710938 75.2265625 C-14.35504353 75.29243998 -16.58282921 75.18987611 -20.171875 73.10546875 C-22.54125361 70.39963838 -22.78349198 68.40754868 -22.55078125 64.84375 C-21.87269277 61.70836842 -20.45693618 60.01260816 -18.125 57.875 C-10.08077968 55.05058487 0.88145456 56.28757752 8.875 58.875 C12.45116425 60.62219043 14.63661994 62.51742991 16.875 65.875 C17.10198506 68.83464941 17.20721522 71.66568788 17.1875 74.625 C17.18331055 75.47247803 17.17912109 76.31995605 17.17480469 77.19311523 C16.90747798 92.33546665 13.92855868 106.61353377 3.24609375 117.8046875 C-1.50386974 121.95210208 -6.91043495 123.24086071 -13.125 123.875 C-13.76824219 123.96265625 -14.41148437 124.0503125 -15.07421875 124.140625 C-22.36953476 124.71691567 -28.1815661 121.93729248 -34.125 117.875 C-47.06620927 105.45404035 -52.93088131 87.64960007 -53.375 70.0625 C-52.74660512 47.1815334 -46.42239244 26.17137326 -29.79882812 9.82397461 C-22.00530648 2.65716131 -10.6500762 -3.83402743 0 0 Z " fill="#11140E" transform="translate(452.125,96.125)"/>
<path d="M0 0 C1.75183594 -0.0309375 1.75183594 -0.0309375 3.5390625 -0.0625 C10.73277726 -0.09512456 16.68390594 -0.08602347 22.1875 5.0625 C23.61415375 7.99972831 23.66164088 10.0254798 23.25 13.25 C21.39657225 15.80949546 20.31243607 16.22918798 17.25 17.25 C15.40389468 17.33239169 13.55494836 17.35743359 11.70703125 17.34765625 C10.63388672 17.34443359 9.56074219 17.34121094 8.45507812 17.33789062 C7.33552734 17.32951172 6.21597656 17.32113281 5.0625 17.3125 C3.93134766 17.30798828 2.80019531 17.30347656 1.63476562 17.29882812 C-1.16020927 17.28703498 -3.9550782 17.2705765 -6.75 17.25 C-7.72157545 20.16472635 -8.03253958 22.52597757 -8.28515625 25.57421875 C-8.37216797 26.60224609 -8.45917969 27.63027344 -8.54882812 28.68945312 C-8.63583984 29.76130859 -8.72285156 30.83316406 -8.8125 31.9375 C-8.90337891 33.02095703 -8.99425781 34.10441406 -9.08789062 35.22070312 C-9.31188773 37.89687907 -9.5324562 40.57329301 -9.75 43.25 C-8.76 42.755 -8.76 42.755 -7.75 42.25 C-4.11053157 41.95704845 -0.46238936 41.97212893 3.1875 41.9375 C4.20263672 41.90849609 5.21777344 41.87949219 6.26367188 41.84960938 C7.23755859 41.84123047 8.21144531 41.83285156 9.21484375 41.82421875 C10.1080835 41.80963623 11.00132324 41.79505371 11.92163086 41.7800293 C14.25 42.25 14.25 42.25 16.03344727 44.06176758 C17.85405074 47.33651551 17.76664845 49.56887978 17.25 53.25 C14.52570649 56.7310417 12.55264701 58.45664315 8.25 59.25 C6.810265 59.39033578 5.36662851 59.49416857 3.921875 59.56640625 C3.2009668 59.60451416 2.48005859 59.64262207 1.73730469 59.68188477 C0.83399414 59.72498779 -0.06931641 59.76809082 -1 59.8125 C-3.8875 59.956875 -6.775 60.10125 -9.75 60.25 C-9.75 68.17 -9.75 76.09 -9.75 84.25 C-3.24314581 83.27001101 -3.24314581 83.27001101 3.26147461 82.27539062 C18.4610959 80.04522785 18.4610959 80.04522785 23.3125 83.3125 C25.72139299 86.9646926 25.88659594 88.95297741 25.25 93.25 C23.27223462 96.26869453 20.59313344 97.11162482 17.25 98.25 C14.49016513 98.64901227 11.77147693 98.98271565 9 99.25 C4.34536828 99.73897341 -0.20160012 100.22983549 -4.75 101.375 C-9.08932002 102.40937279 -13.31908192 103.07756447 -17.75 102.25 C-22.94582407 98.52256099 -25.14811988 93.45166787 -26.3125 87.2578125 C-28.5105784 70.30947112 -26.77025365 52.39165405 -25.68395996 35.39489746 C-25.56198303 33.47539989 -25.44546666 31.55554699 -25.33459473 29.63537598 C-25.17373165 26.90639379 -24.98881946 24.18007761 -24.796875 21.453125 C-24.75187866 20.64262695 -24.70688232 19.83212891 -24.66052246 18.99707031 C-24.16565848 12.61155637 -22.46514167 6.80058763 -17.6875 2.3125 C-12.16856079 -0.71401505 -6.12125953 0.02667215 0 0 Z " fill="#11140E" transform="translate(712.75,109.75)"/>
<path d="M0 0 C4.23177511 2.81866823 6.28749193 5.76413461 8.62890625 10.234375 C8.94528549 10.83123108 9.26166473 11.42808716 9.58763123 12.04302979 C10.58986969 13.93998865 11.57625197 15.8446877 12.5625 17.75 C13.22750299 19.0135543 13.89351047 20.27658047 14.56054688 21.5390625 C16.39325723 25.0161009 18.19773844 28.50708847 20 32 C20.67071533 33.27133789 20.67071533 33.27133789 21.35498047 34.56835938 C24 39.65592004 24 39.65592004 24 43 C24.66 43 25.32 43 26 43 C26.2578125 42.28585938 26.515625 41.57171875 26.78125 40.8359375 C28.07963916 37.8146858 29.64502302 35.3390442 31.5 32.625 C32.20898438 31.58085937 32.91796875 30.53671875 33.6484375 29.4609375 C34.02838867 28.90374023 34.40833984 28.34654297 34.79980469 27.77246094 C36.0597879 25.91170461 37.30145425 24.03976839 38.5390625 22.1640625 C49.61487841 5.38512159 49.61487841 5.38512159 54 1 C58.01298073 0.37575855 59.54095495 0.67068508 62.875 3.0625 C65.6034822 6.8342254 65.52276728 8.39778091 65 13 C63.67659571 16.05545288 61.94016946 18.77727315 60.125 21.5625 C59.62830811 22.34971436 59.13161621 23.13692871 58.61987305 23.94799805 C55.12234287 29.43221865 51.41740685 34.7504677 47.57861328 39.99975586 C38.02922578 52.09394018 38.02922578 52.09394018 33.74462891 66.13842773 C33.73419052 67.34504311 33.73419052 67.34504311 33.72354126 68.57603455 C33.72453827 69.43652908 33.72553528 70.29702362 33.7265625 71.18359375 C33.70627615 73.01628218 33.68542542 74.84896443 33.6640625 76.68164062 C33.64145428 79.56296005 33.62498674 82.44403536 33.61914062 85.32543945 C33.60961333 88.11193647 33.57583797 90.89734167 33.5390625 93.68359375 C33.54410797 94.54206406 33.54915344 95.40053436 33.55435181 96.28501892 C33.48701981 100.38467872 33.31873209 102.4918551 31.09130859 106.04296875 C29 108 29 108 27 108.62890625 C23.37783996 108.50863922 21.54912523 108.40832389 18.5625 106.1875 C15.98941153 102.58517615 15.97231464 100.00867349 16.3213501 95.71075439 C18.65078873 66.09883729 9.31634744 45.34200747 -5.56396484 20.17724609 C-11.01792986 10.89649311 -11.01792986 10.89649311 -10.9375 6.875 C-9.04385206 1.067813 -6.08490495 -0.99345387 0 0 Z " fill="#13160F" transform="translate(820,107)"/>
<path d="M0 0 C6.12147887 5.96038732 6.12147887 5.96038732 6.9375 10.3125 C6.16801948 14.41639613 4.70378632 15.85209272 1.375 18.3125 C-1.6875 18.8125 -1.6875 18.8125 -4.625 18.3125 C-5.95833333 17.3125 -7.29166667 16.3125 -8.625 15.3125 C-12.95237511 14.40677033 -15.49736559 15.57495071 -19.125 17.8125 C-28.34518959 24.48012032 -32.46307853 33.85637677 -35.2421875 44.7265625 C-36.84592433 55.55996844 -36.4679458 65.79649969 -30.421875 75.1796875 C-27.35132597 79.24136311 -24.61855015 80.87804839 -19.66015625 81.59765625 C-13.757267 82.00224796 -10.03236827 80.22240521 -4.9140625 77.44140625 C-1.90690884 75.95835607 0.08585258 75.6240738 3.375 76.3125 C6.25 77.9375 6.25 77.9375 8.375 80.3125 C9.12826055 84.16249839 8.58762208 85.91178916 6.75 89.375 C0.83967353 96.68514063 -4.82654659 99.66390342 -14.1171875 100.703125 C-24.42880096 101.16704217 -32.21283533 99.13812466 -40.00390625 92.19140625 C-49.87342308 81.70390862 -54.3211941 67.74422057 -54.09277344 53.41601562 C-53.35481221 37.24301279 -47.16668434 19.88223605 -35.765625 8.14453125 C-26.0746218 -0.14941127 -12.34656673 -5.74753968 0 0 Z " fill="#11140E" transform="translate(670.625,110.6875)"/>
<path d="M0 0 C9.22370427 8.10875101 13.55276482 23.62269131 14.34765625 35.44140625 C15.06705537 52.15725566 10.62512386 65.9303432 -0.40234375 78.8046875 C-8.84221769 87.75268895 -18.60258212 94.37160695 -30 99 C-28.25977006 93.47293168 -26.2772475 88.08359714 -24.109375 82.7109375 C-23.70893982 81.71817307 -23.70893982 81.71817307 -23.30041504 80.70535278 C-23.02596558 80.02512054 -22.75151611 79.34488831 -22.46875 78.64404297 C-13.06780389 55.34045056 -4.03098611 31.14030283 -1.4296875 5.9609375 C-1 2 -1 2 0 0 Z " fill="#FCE752" transform="translate(309,193)"/>
<path d="M0 0 C6.20659818 3.89433611 8.73025634 9.19076901 11 16 C11.67335954 27.90033495 12.16025103 41.39970467 4 51 C0.62805242 54.46561279 -2.27088634 55.79410328 -7.01171875 56.16015625 C-10.52917273 55.87682499 -12.41547384 54.29083001 -15 52 C-22.11530912 43.30351107 -22.00635731 31.70261002 -21 21 C-19.55110813 13.57442916 -16.92368313 6.94627541 -11 2 C-7.19835939 -0.2163715 -4.41650647 -0.53302664 0 0 Z " fill="#FCE954" transform="translate(582,135)"/>
<path d="M0 0 C5.11632353 2.16073995 10.38006289 5.26012578 12.9375 10.375 C13.49801959 14.9694229 13.40129562 18.44740876 11.3125 22.625 C3.1554889 32.06996022 -8.04204368 36.64446487 -20.0625 39.375 C-22.0425 39.375 -24.0225 39.375 -26.0625 39.375 C-26.0625 26.505 -26.0625 13.635 -26.0625 0.375 C-18.43539584 -3.43855208 -8.02140591 -2.67380197 0 0 Z " fill="#FCE954" transform="translate(527.0625,308.625)"/>
<path d="M0 0 C5.72491767 0.09035297 9.45858829 0.98214462 14.23193359 4.32348633 C16.94866285 8.39858021 16.97766968 11.53834646 16.23193359 16.32348633 C13.14089518 23.94068814 7.02202297 29.17691331 -0.26806641 32.63598633 C-4.11837482 34.22762326 -7.62649057 34.97101179 -11.76806641 35.32348633 C-11.89157067 27.03497778 -11.72164042 18.78958546 -11.33056641 10.51098633 C-11.27171265 9.17632324 -11.27171265 9.17632324 -11.21166992 7.81469727 C-10.75563362 -1.18698665 -7.98801612 0.03978976 0 0 Z " fill="#FCE954" transform="translate(514.76806640625,253.676513671875)"/>
<path d="M0 0 C5.1587003 1.71956677 8.03092126 4.45905605 11 9 C11.76652182 13.68429999 11.08911088 17.02353792 8.515625 21.046875 C2.64760668 28.60875427 -4.307706 34.8878763 -13 39 C-13.66 39 -14.32 39 -15 39 C-15.13655155 30.24552842 -14.97010679 21.49991485 -14.6875 12.75 C-14.66502197 11.72575928 -14.64254395 10.70151855 -14.61938477 9.64624023 C-14.58385498 8.68532471 -14.5483252 7.72440918 -14.51171875 6.734375 C-14.48553467 5.87038086 -14.45935059 5.00638672 -14.43237305 4.11621094 C-13.1693875 -2.06535806 -4.75963591 -0.43021099 0 0 Z " fill="#FAE854" transform="translate(511,120)"/>
<path d="M0 0 C1.31355469 -0.03738281 2.62710938 -0.07476562 3.98046875 -0.11328125 C8.34884579 0.37209398 10.42131173 1.58425079 13.8125 4.3125 C16.16332868 7.30446378 16.24210938 10.54618464 16.1171875 14.30078125 C15.23423183 20.13055264 10.32466625 24.08320191 6.03515625 27.69921875 C1.25929268 31.16570672 -3.26619113 33.3125 -9.1875 33.3125 C-9.06953546 28.77333081 -8.94530887 24.23439358 -8.81518555 19.69555664 C-8.77178015 18.15035711 -8.73010929 16.60510786 -8.69018555 15.05981445 C-8.63261801 12.84310904 -8.56888576 10.6266552 -8.50390625 8.41015625 C-8.48719376 7.7153566 -8.47048126 7.02055695 -8.45326233 6.30470276 C-8.23897375 -0.577688 -6.2815545 0.0893112 0 0 Z " fill="#FCEA55" transform="translate(773.1875,120.6875)"/>
<path d="M0 0 C3.49996383 2.04164557 5.80555258 4.09089936 7 8 C7.42161717 13.31237628 7.53159711 16.73772763 4 21 C0.33146322 24.12904608 -3.10102595 24.57021124 -7.77734375 24.4296875 C-11.58350909 23.69387346 -13.35670706 21.77545759 -16 19 C-17.86233425 15.27533151 -17.57130829 11.05504687 -17 7 C-13.12152077 -0.25044065 -7.56325854 -0.86947697 0 0 Z " fill="#11130E" transform="translate(150,167)"/>
<path d="M0 0 C0.33 0.66 0.66 1.32 1 2 C0.67 2.99 0.34 3.98 0 5 C5.61 5.33 11.22 5.66 17 6 C17 6.33 17 6.66 17 7 C16.13387085 7.01401855 16.13387085 7.01401855 15.25024414 7.02832031 C2.33349929 7.2892905 -9.56224453 8.45342516 -22 12 C-21.67 10.35 -21.34 8.7 -21 7 C-21.66 6.67 -22.32 6.34 -23 6 C-23 5.34 -23 4.68 -23 4 C-20.29352533 3.32488828 -17.58522815 2.65972659 -14.875 2 C-14.11445313 1.80921875 -13.35390625 1.6184375 -12.5703125 1.421875 C-8.28411166 0.3872748 -4.44599099 -0.2272711 0 0 Z " fill="#16170E" transform="translate(162,120)"/>
<path d="M0 0 C3.61329348 3.17652174 5.60146254 6.679795 7.5625 11 C7.86478516 11.65919434 8.16707031 12.31838867 8.47851562 12.99755859 C11.7252658 20.30274648 15.08059331 27.99549517 13 36 C12.67 36 12.34 36 12 36 C11.86464844 35.01902344 11.72929687 34.03804687 11.58984375 33.02734375 C10.00187756 22.72035027 6.83266511 14.21516415 2 5 C-0.38955324 7.38955324 -0.27615579 13.28894599 -0.80664062 16.65429688 C-1.98304167 23.74317983 -1.98304167 23.74317983 -4 27 C-2.25603865 4.51207729 -2.25603865 4.51207729 0 0 Z " fill="#F1EC62" transform="translate(309,193)"/>
<path d="M0 0 C0 0.99 0 1.98 0 3 C2.31 3.33 4.62 3.66 7 4 C7 4.33 7 4.66 7 5 C5.71802734 5.18175781 5.71802734 5.18175781 4.41015625 5.3671875 C3.30542969 5.53476563 2.20070313 5.70234375 1.0625 5.875 C-0.03964844 6.03742188 -1.14179688 6.19984375 -2.27734375 6.3671875 C-3.62505859 6.68042969 -3.62505859 6.68042969 -5 7 C-5.33 7.66 -5.66 8.32 -6 9 C-8.06640625 9.8515625 -8.06640625 9.8515625 -10.5625 10.625 C-11.38878906 10.88539062 -12.21507812 11.14578125 -13.06640625 11.4140625 C-13.70449219 11.60742188 -14.34257812 11.80078125 -15 12 C-15.33 10.68 -15.66 9.36 -16 8 C-13.77594342 7.42339274 -11.57276987 6.92051532 -9.3125 6.5 C-7.04844958 6.22901669 -7.04844958 6.22901669 -6 5 C-6.66 4.34 -7.32 3.68 -8 3 C-8 2.34 -8 1.68 -8 1 C-5.10765685 0.17361624 -3.11257569 0 0 0 Z M-14 5 C-13.01 5.495 -13.01 5.495 -12 6 C-12.99 6.495 -12.99 6.495 -14 7 C-14 6.34 -14 5.68 -14 5 Z " fill="#1B1C11" transform="translate(314,63)"/>
<path d="M0 0 C0.33 0.66 0.66 1.32 1 2 C0.67 2.99 0.34 3.98 0 5 C5.61 5.33 11.22 5.66 17 6 C17 6.33 17 6.66 17 7 C0.29157175 7.18451025 0.29157175 7.18451025 -8 6 C-8 5.01 -8 4.02 -8 3 C-8.99 2.34 -9.98 1.68 -11 1 C-7.26562152 0.12132271 -3.83225427 -0.08912219 0 0 Z " fill="#2E2D17" transform="translate(162,120)"/>
<path d="M0 0 C0.33 0 0.66 0 1 0 C1 11.88 1 23.76 1 36 C0.67 36 0.34 36 0 36 C-0.06058594 35.22914063 -0.12117188 34.45828125 -0.18359375 33.6640625 C-0.26738281 32.66117187 -0.35117187 31.65828125 -0.4375 30.625 C-0.51871094 29.62726563 -0.59992188 28.62953125 -0.68359375 27.6015625 C-0.84965626 25.02072387 -0.84965626 25.02072387 -2 23 C-2.07194869 20.11629667 -2.09291708 17.25760336 -2.0625 14.375 C-2.05798828 13.57320313 -2.05347656 12.77140625 -2.04882812 11.9453125 C-2.03703168 9.96350994 -2.01909605 7.98174567 -2 6 C-1.67 6 -1.34 6 -1 6 C-0.67 4.02 -0.34 2.04 0 0 Z " fill="#1D1E13" transform="translate(484,315)"/>
<path d="M0 0 C1.15628906 -0.02126953 1.15628906 -0.02126953 2.3359375 -0.04296875 C4.89577707 0.21476254 6.39956076 0.92405342 8.625 2.1875 C9.945 2.8475 11.265 3.5075 12.625 4.1875 C0.745 3.8575 -11.135 3.5275 -23.375 3.1875 C-23.375 2.8575 -23.375 2.5275 -23.375 2.1875 C-21.56902344 2.09662109 -21.56902344 2.09662109 -19.7265625 2.00390625 C-18.15102923 1.91950268 -16.57550904 1.83485459 -15 1.75 C-14.2059375 1.71068359 -13.411875 1.67136719 -12.59375 1.63085938 C-8.16160027 1.38671553 -4.37024494 0.03629772 0 0 Z M-26.375 3.1875 C-23.375 4.1875 -23.375 4.1875 -23.375 4.1875 Z " fill="#1E1F13" transform="translate(691.375,243.8125)"/>
<path d="M0 0 C7.26 0 14.52 0 22 0 C22 0.33 22 0.66 22 1 C20.35 1 18.7 1 17 1 C17 1.66 17 2.32 17 3 C14.54101345 3.08076963 12.08466258 3.14037143 9.625 3.1875 C8.57699219 3.22520508 8.57699219 3.22520508 7.5078125 3.26367188 C5.4765625 3.29296875 5.4765625 3.29296875 2 3 C1.34 2.01 0.68 1.02 0 0 Z " fill="#1C1B0F" transform="translate(590,339)"/>
<path d="M0 0 C0.33 0 0.66 0 1 0 C1 12.21 1 24.42 1 37 C0.01 36.67 -0.98 36.34 -2 36 C-2.09765625 29.84765625 -2.09765625 29.84765625 -2 28 C-1.67 27.67 -1.34 27.34 -1 27 C-0.84174742 25.00217874 -0.74880829 22.99911166 -0.68359375 20.99609375 C-0.64169922 19.78115234 -0.59980469 18.56621094 -0.55664062 17.31445312 C-0.51732422 16.03505859 -0.47800781 14.75566406 -0.4375 13.4375 C-0.39431641 12.15423828 -0.35113281 10.87097656 -0.30664062 9.54882812 C-0.200152 6.36600147 -0.09814038 3.18309326 0 0 Z " fill="#191C12" transform="translate(481,167)"/>
<path d="M0 0 C0.33 0 0.66 0 1 0 C1 1.65 1 3.3 1 5 C6.28 5.33 11.56 5.66 17 6 C17 6.99 17 7.98 17 9 C11.88228715 9.08978444 7.04625044 9.00925009 2 8 C0 6 0 6 -0.125 2.875 C-0.08375 1.92625 -0.0425 0.9775 0 0 Z " fill="#212111" transform="translate(179,115)"/>
<path d="M0 0 C0.33 0.66 0.66 1.32 1 2 C0.67 2.66 0.34 3.32 0 4 C2.97 4 5.94 4 9 4 C9 4.33 9 4.66 9 5 C7.06494977 5.24900646 5.12674066 5.47356242 3.1875 5.6875 C2.10855469 5.81511719 1.02960938 5.94273438 -0.08203125 6.07421875 C-3 6 -3 6 -4.69921875 4.64453125 C-5.34310547 3.83048828 -5.34310547 3.83048828 -6 3 C-6.99 2.34 -7.98 1.68 -9 1 C-6.04335481 -0.4783226 -3.25770263 -0.06032783 0 0 Z " fill="#0B0D0A" transform="translate(154,122)"/>
<path d="M0 0 C0 0.99 0 1.98 0 3 C-2.22843488 3.19600577 -4.45779893 3.38146569 -6.6875 3.5625 C-8.54955078 3.71912109 -8.54955078 3.71912109 -10.44921875 3.87890625 C-13.55835533 3.98493841 -16.00810972 3.77228525 -19 3 C-19 2.67 -19 2.34 -19 2 C-12.56971459 0.67611771 -6.5705166 -0.24794402 0 0 Z " fill="#1B1B0E" transform="translate(633,335)"/>
<path d="M0 0 C10.23 0 20.46 0 31 0 C30.01 1.485 30.01 1.485 29 3 C26.8359375 3.29296875 26.8359375 3.29296875 24.375 3.1875 C23.55773437 3.16042969 22.74046875 3.13335937 21.8984375 3.10546875 C21.27195313 3.07066406 20.64546875 3.03585937 20 3 C20 2.67 20 2.34 20 2 C13.4 1.67 6.8 1.34 0 1 C0 0.67 0 0.34 0 0 Z " fill="#1F2114" transform="translate(224,303)"/>
<path d="M0 0 C1.68598403 3.37196807 2.2653435 4.72039817 2.5625 8.22265625 C2.63726562 9.00833984 2.71203125 9.79402344 2.7890625 10.60351562 C2.93002014 12.24671629 3.07064358 13.88994566 3.2109375 15.53320312 C3.28570312 16.31759766 3.36046875 17.10199219 3.4375 17.91015625 C3.49808594 18.62308838 3.55867188 19.33602051 3.62109375 20.07055664 C3.9340144 22.31698619 3.9340144 22.31698619 6 25 C3.525 24.01 3.525 24.01 1 23 C0.67 15.41 0.34 7.82 0 0 Z " fill="#F9F563" transform="translate(330,218)"/>
<path d="M0 0 C0.05404449 2.75026417 0.09369306 5.49946203 0.125 8.25 C0.15013672 9.41595703 0.15013672 9.41595703 0.17578125 10.60546875 C0.23662606 17.72431144 0.23662606 17.72431144 -2 21 C-3.14982602 16.90996141 -3.11094256 12.96822949 -3.0625 8.75 C-3.05798828 8.00492188 -3.05347656 7.25984375 -3.04882812 6.4921875 C-3.03709246 4.6614236 -3.0191585 2.83070127 -3 1 C-1 0 -1 0 0 0 Z " fill="#252413" transform="translate(484,119)"/>
<path d="M0 0 C1 3 1 3 0.10205078 4.90332031 C-0.26162598 5.59522461 -0.62530273 6.28712891 -1 7 C-1.44774526 9.21368748 -1.44774526 9.21368748 -1.6328125 11.546875 C-1.71660156 12.39121094 -1.80039062 13.23554688 -1.88671875 14.10546875 C-1.96535156 14.97816406 -2.04398438 15.85085937 -2.125 16.75 C-2.21136719 17.63816406 -2.29773438 18.52632812 -2.38671875 19.44140625 C-2.59823066 21.62702936 -2.80240227 23.81308238 -3 26 C-3.33 26 -3.66 26 -4 26 C-4.05455124 23.33305052 -4.09393392 20.66724502 -4.125 18 C-4.14175781 17.25621094 -4.15851562 16.51242188 -4.17578125 15.74609375 C-4.22141431 10.49829209 -3.6003777 6.01377069 -2 1 C-1.34 0.67 -0.68 0.34 0 0 Z " fill="#0B0B07" transform="translate(549,147)"/>
<path d="M0 0 C0 2.31 0 4.62 0 7 C-0.66 7 -1.32 7 -2 7 C-1.67 7.66 -1.34 8.32 -1 9 C-0.93003986 10.70702735 -0.91559846 12.41668003 -0.9375 14.125 C-0.94652344 15.03507812 -0.95554687 15.94515625 -0.96484375 16.8828125 C-0.98224609 17.93082031 -0.98224609 17.93082031 -1 19 C-1.99 18.34 -2.98 17.68 -4 17 C-4.11027233 14.20742769 -4.05024404 11.7015746 -3.8125 8.9375 C-3.76802734 8.19177734 -3.72355469 7.44605469 -3.67773438 6.67773438 C-3.53788789 4.77685802 -3.27773435 2.88567006 -3 1 C-1 0 -1 0 0 0 Z " fill="#1F1F11" transform="translate(655,263)"/>
<path d="M0 0 C0.33 0 0.66 0 1 0 C1 5.94 1 11.88 1 18 C0.01 18 -0.98 18 -2 18 C-2.05397335 15.5622037 -2.09365616 13.12560315 -2.125 10.6875 C-2.14175781 9.99720703 -2.15851562 9.30691406 -2.17578125 8.59570312 C-2.21217794 4.82864604 -2.14378864 3.21568296 0 0 Z " fill="#1A1A11" transform="translate(651,296)"/>
<path d="M0 0 C0.33 0 0.66 0 1 0 C1 6.6 1 13.2 1 20 C-1.23351724 15.53296551 -2.15481755 13.48447735 -2.1875 8.5625 C-2.20167969 7.59441406 -2.21585937 6.62632812 -2.23046875 5.62890625 C-2 3 -2 3 0 0 Z " fill="#1C1D12" transform="translate(485,292)"/>
<path d="M0 0 C1.09570312 0.00902344 2.19140625 0.01804687 3.3203125 0.02734375 C4.16335938 0.03894531 5.00640625 0.05054688 5.875 0.0625 C6.205 0.7225 6.535 1.3825 6.875 2.0625 C3.9469073 2.8981429 1.29323857 3.22455486 -1.75 3.25 C-2.91402344 3.27126953 -2.91402344 3.27126953 -4.1015625 3.29296875 C-6.125 3.0625 -6.125 3.0625 -8.125 1.0625 C-5.36047967 -0.31976016 -3.0788637 -0.03275387 0 0 Z " fill="#242211" transform="translate(591.125,355.9375)"/>
<path d="M0 0 C0.33 0 0.66 0 1 0 C1.33 4.62 1.66 9.24 2 14 C2.33 14 2.66 14 3 14 C3.29296875 19.95703125 3.29296875 19.95703125 3 22 C2.01 22.99 1.02 23.98 0 25 C0 16.75 0 8.5 0 0 Z " fill="#1E1E14" transform="translate(762,124)"/>
<path d="M0 0 C0.33 0 0.66 0 1 0 C1 5.61 1 11.22 1 17 C0.34 17.33 -0.32 17.66 -1 18 C-2.01702117 14.9489365 -2.16582083 12.75800939 -2.1875 9.5625 C-2.20167969 8.61503906 -2.21585937 7.66757812 -2.23046875 6.69140625 C-1.99614518 3.95498356 -1.39701383 2.33571877 0 0 Z " fill="#1B1B12" transform="translate(487,256)"/>
<path d="M0 0 C1 3 1 3 -0.65234375 6.57421875 C-1.40387723 7.95092168 -2.1660567 9.32185409 -2.9375 10.6875 C-3.51661133 11.7403418 -3.51661133 11.7403418 -4.10742188 12.81445312 C-5.06261773 14.54795672 -6.03015386 16.27465009 -7 18 C-7.33 18 -7.66 18 -8 18 C-8 15.69 -8 13.38 -8 11 C-7.01 11 -6.02 11 -5 11 C-4.731875 10.113125 -4.46375 9.22625 -4.1875 8.3125 C-3.08289181 5.23122452 -1.77150856 2.73778595 0 0 Z " fill="#0D0D07" transform="translate(191,59)"/>
<path d="M0 0 C0.66 0.33 1.32 0.66 2 1 C3.53668865 1.22467831 5.07968054 1.40796805 6.625 1.5625 C7.44226563 1.64628906 8.25953125 1.73007813 9.1015625 1.81640625 C9.72804688 1.87699219 10.35453125 1.93757812 11 2 C11 2.99 11 3.98 11 5 C2.80743982 5.63019694 2.80743982 5.63019694 -0.5625 3 C-1.2740625 2.01 -1.2740625 2.01 -2 1 C-1.34 0.67 -0.68 0.34 0 0 Z " fill="#1E1D10" transform="translate(693,207)"/>
<path d="M0 0 C1.9375 0.625 1.9375 0.625 4 2 C4.9375 4.8125 4.9375 4.8125 5 8 C3.5625 10.875 3.5625 10.875 2 13 C0.68 12.34 -0.64 11.68 -2 11 C-0.68 10.34 0.64 9.68 2 9 C1.51515724 4.35413108 1.51515724 4.35413108 0 0 Z " fill="#1D1B0D" transform="translate(708,248)"/>
<path d="M0 0 C0.33 0 0.66 0 1 0 C1 6.27 1 12.54 1 19 C1.66 19.33 2.32 19.66 3 20 C1.68 20.99 0.36 21.98 -1 23 C-0.67 15.41 -0.34 7.82 0 0 Z " fill="#FAF769" transform="translate(272,62)"/>
<path d="M0 0 C0 0.99 0 1.98 0 3 C-1.95803507 3.05389087 -3.91648909 3.09274217 -5.875 3.125 C-6.96554687 3.14820313 -8.05609375 3.17140625 -9.1796875 3.1953125 C-12 3 -12 3 -14 1 C-9.23692563 0.04738513 -4.8333472 -0.08333357 0 0 Z " fill="#212212" transform="translate(730,205)"/>
<path d="M0 0 C0.99 0.33 1.98 0.66 3 1 C1.02 5.455 1.02 5.455 -1 10 C-1.33 10 -1.66 10 -2 10 C-2.1953125 3.9453125 -2.1953125 3.9453125 -2 2 C-1.34 1.34 -0.68 0.68 0 0 Z " fill="#EBE156" transform="translate(593,263)"/>
<path d="M0 0 C1.9375 0.8125 1.9375 0.8125 4 2 C4.33 2.99 4.66 3.98 5 5 C3.68 5.99 2.36 6.98 1 8 C0.34 7.67 -0.32 7.34 -1 7 C-1.04254356 5.00045254 -1.04080783 2.99958364 -1 1 C-0.67 0.67 -0.34 0.34 0 0 Z " fill="#0A0B0A" transform="translate(319,159)"/>
<path d="M0 0 C1.2684375 0.12375 1.2684375 0.12375 2.5625 0.25 C3.2225 1.24 3.8825 2.23 4.5625 3.25 C-1.0475 3.25 -6.6575 3.25 -12.4375 3.25 C-12.4375 2.92 -12.4375 2.59 -12.4375 2.25 C-11.48037109 2.15912109 -11.48037109 2.15912109 -10.50390625 2.06640625 C-9.26447266 1.94072266 -9.26447266 1.94072266 -8 1.8125 C-7.17628906 1.73128906 -6.35257812 1.65007812 -5.50390625 1.56640625 C-2.99054546 1.18156273 -2.63343279 0.27009567 0 0 Z " fill="#191B11" transform="translate(448.4375,152.75)"/>
<path d="M0 0 C-0.66 0.66 -1.32 1.32 -2 2 C-2.33 1.67 -2.66 1.34 -3 1 C-5.85877909 0.76298761 -8.69883297 0.57780818 -11.5625 0.4375 C-12.36880859 0.39431641 -13.17511719 0.35113281 -14.00585938 0.30664062 C-16.00368805 0.20024738 -18.0018207 0.09959112 -20 0 C-20 -0.33 -20 -0.66 -20 -1 C-17.22964291 -1.22162857 -14.45961005 -1.42779249 -11.6875 -1.625 C-10.90181641 -1.68945312 -10.11613281 -1.75390625 -9.30664062 -1.8203125 C-8.54931641 -1.871875 -7.79199219 -1.9234375 -7.01171875 -1.9765625 C-6.31522217 -2.02893066 -5.61872559 -2.08129883 -4.90112305 -2.13525391 C-3 -2 -3 -2 0 0 Z " fill="#1A1C12" transform="translate(625,294)"/>
<path d="M0 0 C0.66 0 1.32 0 2 0 C2 4.29 2 8.58 2 13 C-1.6812654 8.09164613 -1.38327454 6.84493669 -1 1 C-0.67 0.67 -0.34 0.34 0 0 Z " fill="#F0DC4F" transform="translate(610,153)"/>
<path d="M0 0 C-0.33 1.98 -0.66 3.96 -1 6 C-2.32 6.33 -3.64 6.66 -5 7 C-4.34 5.02 -3.68 3.04 -3 1 C-3.99 0.67 -4.98 0.34 -6 0 C-3.50907189 -1.24546405 -2.58919267 -0.7767578 0 0 Z " fill="#0A0B09" transform="translate(141,126)"/>
<path d="M0 0 C0.33 1.32 0.66 2.64 1 4 C3.64 4 6.28 4 9 4 C7.8125 5.5625 7.8125 5.5625 6 7 C3.4375 6.875 3.4375 6.875 1 6 C0.34 5.01 -0.32 4.02 -1 3 C-0.67 2.01 -0.34 1.02 0 0 Z " fill="#1D1D10" transform="translate(482,209)"/>
<path d="M0 0 C0.33 0 0.66 0 1 0 C1 2.97 1 5.94 1 9 C0.67 9 0.34 9 0 9 C0 6.03 0 3.06 0 0 Z M-1 9 C-0.67 9 -0.34 9 0 9 C0 11.31 0 13.62 0 16 C-0.99 16 -1.98 16 -3 16 C-2.42415568 13.61435923 -1.77772405 11.33317216 -1 9 Z " fill="#1E1E11" transform="translate(595,156)"/>
<path d="M0 0 C0.99 0.66 1.98 1.32 3 2 C2.67 3.98 2.34 5.96 2 8 C1.67 7.34 1.34 6.68 1 6 C0.01 6 -0.98 6 -2 6 C-1.125 1.125 -1.125 1.125 0 0 Z " fill="#0B0E0C" transform="translate(268,78)"/>
<path d="M0 0 C1.40907283 2.81814566 0.50872691 4.17277204 -0.4375 7.125 C-0.72496094 8.03507812 -1.01242188 8.94515625 -1.30859375 9.8828125 C-1.53675781 10.58148438 -1.76492187 11.28015625 -2 12 C-2.99 11.34 -3.98 10.68 -5 10 C-3.35 6.7 -1.7 3.4 0 0 Z " fill="#F2E85A" transform="translate(189,66)"/>
<path d="M0 0 C-2.37375443 2.74855776 -4.66357897 3.6829917 -8 5 C-8.33 5.66 -8.66 6.32 -9 7 C-9.66 6.67 -10.32 6.34 -11 6 C-7.34769214 1.25199978 -6.01084259 -0.15818007 0 0 Z " fill="#0F0E08" transform="translate(702,111)"/>
<path d="M0 0 C1.5 1.375 1.5 1.375 3 3 C3 3.66 3 4.32 3 5 C3.99 5 4.98 5 6 5 C6.33 6.98 6.66 8.96 7 11 C3.17330957 7.57611908 1.27721526 4.99275057 0 0 Z " fill="#090A05" transform="translate(94,237)"/>
<path d="M0 0 C0.33 0 0.66 0 1 0 C1 3.63 1 7.26 1 11 C0.67 10.34 0.34 9.68 0 9 C-0.66 9 -1.32 9 -2 9 C-2.125 5.625 -2.125 5.625 -2 2 C-1.34 1.34 -0.68 0.68 0 0 Z " fill="#1D1E11" transform="translate(690,131)"/>
<path d="M0 0 C1.32 0.33 2.64 0.66 4 1 C3.2884375 1.5878125 3.2884375 1.5878125 2.5625 2.1875 C0.64820367 4.40808374 0.38733012 6.13375709 0 9 C-0.66 8.67 -1.32 8.34 -2 8 C-1.125 2.25 -1.125 2.25 0 0 Z " fill="#0D0E08" transform="translate(811,109)"/>
<path d="M0 0 C2 3 2 3 1.625 5.1875 C1.41875 5.785625 1.2125 6.38375 1 7 C0.34 7 -0.32 7 -1 7 C-1 7.99 -1 8.98 -1 10 C-1.66 10 -2.32 10 -3 10 C-2.01 6.7 -1.02 3.4 0 0 Z " fill="#1D1C0E" transform="translate(550,138)"/>
<path d="M0 0 C0.99 0 1.98 0 3 0 C2.44271087 3.34373475 1.64826111 6.03312999 0 9 C-1.10844919 5.67465243 -0.84454356 3.37817425 0 0 Z " fill="#E9DD55" transform="translate(246,157)"/>
<path d="M0 0 C0.99 0.33 1.98 0.66 3 1 C3 3.31 3 5.62 3 8 C2.01 8.33 1.02 8.66 0 9 C0 6.03 0 3.06 0 0 Z " fill="#1A1C10" transform="translate(494,137)"/>
<path d="M0 0 C-3.96 1.98 -3.96 1.98 -8 4 C-7.67 2.68 -7.34 1.36 -7 0 C-4 -1 -4 -1 0 0 Z " fill="#FBF463" transform="translate(287,288)"/>
<path d="M0 0 C0.99 0.495 0.99 0.495 2 1 C2 2.32 2 3.64 2 5 C2.99 5.33 3.98 5.66 5 6 C3.0625 6.5625 3.0625 6.5625 1 7 C0 6 0 6 -0.0625 2.9375 C-0.041875 1.968125 -0.02125 0.99875 0 0 Z " fill="#F1EA5C" transform="translate(667,332)"/>
<path d="M0 0 C0.99 0.33 1.98 0.66 3 1 C1.66666667 3.66666667 0.33333333 6.33333333 -1 9 C-1.66 8.67 -2.32 8.34 -3 8 C-2.01 5.36 -1.02 2.72 0 0 Z " fill="#ECE45C" transform="translate(558,331)"/>
<path d="M0 0 C1.65 0.33 3.3 0.66 5 1 C5 1.66 5 2.32 5 3 C2.69 3 0.38 3 -2 3 C-1.34 2.01 -0.68 1.02 0 0 Z M-5 3 C-2 4 -2 4 -2 4 Z " fill="#1E1F11" transform="translate(709,193)"/>
<path d="M0 0 C0.66 0.33 1.32 0.66 2 1 C1.25 5.75 1.25 5.75 -1 8 C-1.04241723 5.66705225 -1.04092937 3.33297433 -1 1 C-0.67 0.67 -0.34 0.34 0 0 Z " fill="#1B1B10" transform="translate(270,62)"/>
</svg>
